<svg width="100%" height="100%" xmlns="http://www.w3.org/2000/svg" xmlns:xlink="http://www.w3.org/1999/xlink" viewBox="0 0 219 166">
  <defs>
    <mask id="mask" x="-485" y="0" width="704" height="166" maskUnits="userSpaceOnUse">
      <g id="mask0_21_20" data-name="mask0 21 20">
        <path d="m180.71,40.49c-19.88,15.81-40.79,32.58-65.58,39.68-6,1.72-11.41,2.78-17.1,3.2-3.01.22-6.03.29-9.05.2-3.02-.09-5.67-.31-8.11-.72-5.44-.93-11.45-2.69-15.75-4.81-5.17-2.55-9.42-5.61-13.27-8.9-9.11-7.77-17.46-16.84-28.09-22.61-11.91-6.45-25.37-7.63-38.42-4.3-24.76,6.31-44.66,25.11-68.23,32.84-11.77,3.86-22.52,5.72-34.67,5.39-10.9-.3-22.08-2.85-31.72-8.15-10.3-5.66-18.11-13.91-27.35-21.59-9.35-7.76-19.56-14.38-31.56-17.1-21.16-4.78-42.31,1.76-61.81,9.72-5.35,2.18-10.66,4.47-15.98,6.74-4.87,2.08-8.09,3.47-13.52,5.6-10,3.93-20.16,7.2-30.76,9.04-.26.04-1.77.26-.26.06-.59.08-1.18.14-1.77.21-1.18.13-2.36.23-3.54.3-2.66.16-5.32.2-7.98.07-1.19-.06-2.37-.18-3.55-.26-1.81-.13-.69-.06-.27,0-.78-.1-1.55-.24-2.33-.38-3.47-.62-6.88-1.52-10.25-2.57-12.93-4.02-25.15-10.31-38.54-12.77-24.08-4.43-49.96,1.02-69.89,15.41-4.98,3.6-9.64,7.57-13.8,12.09-3.29,3.58-3.54,9.19,0,12.73,3.33,3.33,9.42,3.59,12.73,0,15.08-16.38,36.56-24.87,58.6-23.71,1.51.08,3,.21,4.5.37,1.65.17-1.04-.17.6.07.66.09,1.32.21,1.98.32,3.23.57,6.41,1.36,9.55,2.31,6.61,1.99,13.01,4.6,19.47,7.04,11.76,4.44,23.84,7.76,36.52,7.41,22.51-.62,43.41-10.01,63.75-18.71,5.13-2.2,8.22-3.53,13.81-5.72,4.78-1.88,9.62-3.63,14.54-5.12s9.52-2.53,14.4-3.36c1.79-.31.52-.08.13-.03.7-.09,1.4-.16,2.1-.23,1.12-.11,2.23-.19,3.35-.24,2.5-.12,5.01-.1,7.52.08.56.04,1.11.09,1.66.14.25.02,1.99.25.88.09-1.33-.19,1.38.25,1.29.24.55.1,1.11.21,1.66.33,2.52.55,5,1.28,7.42,2.18.55.2,1.1.41,1.64.64-.44-.19-1.35-.67.44.23,1.24.63,2.48,1.23,3.68,1.91,2.7,1.53,5.29,3.26,7.78,5.13,8.94,6.69,18.02,16.24,27.84,23.01,21.25,14.66,48.3,17.03,73.07,12,12.4-2.52,24.48-7.08,35.63-13.04,11.6-6.2,22.49-13.7,34.45-19.23,10.06-4.65,20.72-7.19,31.11-3.83.62.2,1.24.42,1.86.65,2.9,1.09-.62-.34.99.44,1.17.56,2.32,1.16,3.44,1.81,1.27.73,2.5,1.52,3.71,2.35.54.37,1.07.75,1.6,1.13.96.69.36.24.92.69,4.6,3.61,8.82,7.68,13.17,11.59,9.43,8.47,19.38,15.58,31.58,19.45,12.2,3.87,26.25,4.31,39.35,2.44,26.49-3.78,49.75-18.36,70.65-34.29,5.56-4.24,11.04-8.57,16.51-12.92,3.81-3.03,3.16-9.57,0-12.73-3.76-3.76-8.91-3.04-12.73,0h0Z" fill="#f8d5c9" stroke-width="0"/>
      </g>
    </mask>
  </defs>
  <g id="Layer_1-2" data-name="Layer 1">
    <g mask="url(#mask)">
      <rect width="219" height="166" fill="#f1b29e" stroke-width="0"/>
    </g>
  </g>
</svg>