<svg width="100%" height="100%" xmlns="http://www.w3.org/2000/svg" xmlns:xlink="http://www.w3.org/1999/xlink" viewBox="0 0 216 184">
  <defs>
    <mask id="mask" x="-1" y="0" width="421.16" height="184" maskUnits="userSpaceOnUse">
      <g id="mask0_21_22" data-name="mask0 21 22">
        <path d="m9.28,57.07c.36-.07,2.79-.6.54-.1.72-.16,1.46-.25,2.19-.37,1.34-.22,2.68-.42,4.02-.61,2.93-.42,5.88-.76,8.83-1.03,2.7-.25,5.41-.43,8.13-.54,1.35-.05,2.71-.08,4.06-.11,2.46-.05-1.72-.05.73,0,.86.02,1.72.02,2.58.04,5.76.15,11.51.65,17.19,1.59.48.08.96.16,1.45.25-1.6-.28.78.16.9.18,1.44.3,2.87.62,4.29.98,2.85.71,5.68,1.54,8.46,2.5,2.13.73,4.22,1.57,6.3,2.44-1.22-.51-.24-.11,0,0,.55.26,1.1.51,1.64.77,1.27.61,2.53,1.25,3.77,1.92,4.08,2.21,7.99,4.73,11.66,7.56.8.61,1.58,1.24,2.36,1.88.05.04,1.54,1.33.61.51.45.4.9.8,1.34,1.21,1.77,1.63,3.46,3.33,5.07,5.11,3.06,3.39,5.82,7.06,8.18,10.98,2.24,3.71,3.76,6.98,5.3,11.61,1.54,4.63,2.62,9.88,2.4,14.48-.12,2.45-.49,4.94-1.24,7.28.31-.97-.44,1.07-.4,1-.22.52-.47,1.03-.73,1.53-.21.4-.42.79-.66,1.18-.17.29-.35.57-.54.84-.44.63-.37.55.2-.25-.2.67-1.29,1.54-1.78,2.03-.14.14-.88.69-.89.85.02-.55,1.33-1.06.03-.07-.77.58-1.72,1.01-2.44,1.63.12-.1,1.9-.97.63-.39-.6.27-1.18.58-1.79.83-.8.34-2.03.37.4-.11-.4.08-.8.26-1.19.37-.88.26-1.8.39-2.68.65,2.54-.74,1.13-.21.37-.11-.5.06-1.01.11-1.51.15-.34.03-.68.03-1.01.06-1.5.11,2.07.08-.32-.01-1.02-.04-2.03-.13-3.04-.27-.13-.02-1-.13-1-.16,0,.08,1.78.39,0-.04-.98-.24-1.96-.53-2.91-.87-.32-.11-.63-.24-.95-.36-.71-.3-.63-.25.26.13-.31-.14-.61-.29-.91-.44-1.72-.88-3.3-1.96-4.81-3.16,1.03.83-.39-.36-.49-.45-.41-.39-.81-.79-1.2-1.2-.78-.82-1.51-1.69-2.2-2.58-.69-.89-1.33-1.83-1.93-2.8-.2-.32-.39-.65-.58-.97-.03-.05-.9-1.7-.38-.65-1.02-2.05-1.84-4.2-2.48-6.4-.59-2.03-1.03-4.11-1.31-6.21-.08-.58-.14-1.15-.2-1.73,0-.03-.14-1.93-.08-.8-.06-1.16-.05-2.33,0-3.49.08-2.12.31-4.24.7-6.33.22-1.16.48-2.3.79-3.43.17-.62.36-1.22.54-1.84.34-1.19-.18.38.29-.88,1.73-4.59,4.07-8.82,6.83-12.87,1.18-1.73-.85,1.05.44-.61.39-.51.78-1.01,1.18-1.51.67-.83,1.36-1.65,2.06-2.46,1.7-1.93,3.5-3.78,5.38-5.54.47-.44.95-.88,1.43-1.31.2-.18,1.85-1.58.41-.37.82-.69,1.65-1.37,2.49-2.03,1.94-1.53,3.94-2.97,5.99-4.35,1-.67,2-1.31,3.02-1.94.51-.31,1.02-.62,1.54-.93.13-.07,1.85-1.02.59-.35-1.26.67.48-.25.6-.32.53-.29,1.05-.57,1.58-.84,1.15-.6,2.31-1.17,3.48-1.73,1.98-.94,3.99-1.81,6.02-2.62.46-.18.93-.36,1.39-.54l.56-.21c.94-.35.75-.28-.58.2.48.24,3.09-1.05,3.68-1.23,2.19-.69,4.39-1.31,6.62-1.86.97-.24,1.94-.46,2.91-.68.58-.13,1.17-.25,1.76-.37.39-.08.78-.16,1.18-.23.98-.18.78-.15-.59.11.05.13,5.95-.87,6.52-.94,2.38-.27,4.77-.47,7.17-.59,1-.05,2-.09,3-.11.45-.01,2.52-.13.18-.02.6-.03,1.2,0,1.8,0,2.4.03,4.8.14,7.19.32,2.19.17,4.38.4,6.56.69.99.13,1.98.28,2.96.44.59.1,1.18.2,1.77.3.86.16.79.14-.22-.04l1.17.24c4.49.93,8.93,2.13,13.27,3.62,2.07.71,4.12,1.48,6.15,2.32.55.23,1.1.46,1.65.7-.24-.1-1.22-.56,0,0,1.21.56,2.53,1.18,3.77,1.8,4.1,2.06,8.05,4.4,11.82,7.01,1.86,1.28,3.67,2.63,5.44,4.05.5.4,1,.82,1.5,1.23.98.8.47.39.26.21,1.14.99,2.25,2.02,3.34,3.07,3.54,3.45,6.78,7.22,9.51,11.35,2.73,4.13,4.41,7.55,5.87,12.46.62,2.07,1.07,4.19,1.35,6.33.08.58.14,1.16.19,1.75,0,.02.11,1.93.07.82.04,1.17.03,2.35-.03,3.52-.11,2.14-.39,4.27-.84,6.36-.24,1.14-.55,2.25-.89,3.36-.34,1.11-.12.36-.03.12-.26.72-.55,1.43-.86,2.13-.85,1.93-1.9,3.74-3.08,5.48.94-1.38-.14.16-.31.37-.36.44-.74.88-1.12,1.3-.26.28-.52.56-.79.83-.32.32-1.94,2.21-.6.63-.76.89-2.06,1.52-3.02,2.18-1.3.89.18-.03.34-.16-.42.36-1.14.6-1.64.84-.56.26-1.12.51-1.69.75l-.57.23c-.94.35-.77.29.52-.19-.15.4-3.2.9-3.58.99l-.61.13c-.99.19-.81.17.52-.09-.28.24-1.49.22-1.86.26-1.04.12-2.09.21-3.13.26-.41.02-2.57.17-.3.05-.63.03-1.27-.01-1.9-.04-1.27-.05-2.53-.14-3.79-.28-1.26-.14-2.51-.32-3.75-.53,1.67.28.25.04-.17-.05-.54-.12-1.08-.24-1.61-.37-2.63-.64-5.16-1.48-7.68-2.44-2-.77,1.11.61-.8-.35-.6-.3-1.2-.59-1.79-.91-.98-.53-1.94-1.09-2.86-1.7-1.11-.73-2.21-1.5-3.2-2.38.78.69-.81-.81-.75-.75-.41-.41-.81-.83-1.2-1.27-5.58-6.24-7.9-14.98-7.49-22.91.12-2.26.41-4.51.87-6.72.22-1.06.48-2.11.78-3.15.16-.57.34-1.13.52-1.69-.37,1.14.29-.74.37-.96.88-2.21,1.95-4.35,3.15-6.41.53-.91,1.09-1.81,1.68-2.7.35-.53.71-1.05,1.08-1.57-.83,1.17.48-.61.65-.83,1.51-1.92,3.14-3.74,4.86-5.48.75-.76,1.52-1.5,2.3-2.23.47-.44.95-.86,1.43-1.29.67-.58.65-.56-.07.06.33-.28.66-.55.99-.82,3.84-3.12,7.94-5.91,12.19-8.44.35-.21.73-.47,1.11-.65-2.03.97,0,0,.35-.19,1.17-.65,2.35-1.28,3.54-1.89,2.38-1.22,4.8-2.37,7.25-3.44,2.25-.98,4.52-1.91,6.81-2.77.12-.04,2.19-.8.75-.28s.64-.22.76-.26c1.48-.51,2.96-.99,4.45-1.44,4.91-1.5,9.89-2.68,14.93-3.67,2.18-.43-1.46.23-.06.01.55-.09,1.1-.19,1.65-.27,1.32-.21,2.65-.4,3.97-.58,2.65-.35,5.32-.62,7.99-.82,2.45-.18,4.9-.3,7.35-.36.67-.02,1.34-.04,2.01-.03-1.86-.01-.61,0-.21,0,1.56.03,3.12.04,4.68.1,5.12.2,10.24.67,15.31,1.43,1.1.16,2.2.34,3.3.53.23.04,2.42.46.64.11.66.13,1.31.26,1.97.4,2.62.55,5.22,1.17,7.8,1.87,4.94,1.34,9.8,2.96,14.56,4.86,1.09.44,2.17.89,3.25,1.35,1.14.48-1.46-.69.4.18.58.27,1.17.54,1.74.81,2.32,1.1,4.6,2.28,6.84,3.54,4.27,2.41,8.37,5.12,12.22,8.16.5.4.99.8,1.48,1.2,1.61,1.3-.83-.77.71.6.79.7,1.57,1.42,2.33,2.15,1.83,1.76,3.57,3.61,5.2,5.55,1.5,1.78,2.91,3.64,4.21,5.58.71,1.06,1.39,2.14,2.04,3.25.27.46.53.93.78,1.4.48.87.29.51.62,1.22,2.08,4.49,3.7,9.12,4.64,13.99.94,4.87,1.15,8.65.6,13.67-.55,5.02-1.62,8.87-3.65,12.95-.5,1.01-1.06,2.01-1.66,2.97-.26.42-1.84,2.57-.82,1.27-1.37,1.75-2.84,3.4-4.47,4.91-.49.45-1.14,1.6-.14.15-.26.38-.94.75-1.31,1.03-.74.56-1.49,1.09-2.27,1.6-.09.06-1.41.88-1.41.88l.97-.55c-.32.18-.65.36-.97.53-.98.51-1.98.98-3,1.41-.49.2-1.08.35-1.54.61,2.03-1.17,1.01-.36.18-.11-.96.29-1.93.55-2.91.76-.93.2-1.49-.16.49-.07-.5-.02-1.11.17-1.61.23-.54.06-1.08.11-1.62.15-.28.02-2.53.26-1.05.07,1.48-.19-.23-.03-.51-.04-.54-.03-1.08-.07-1.61-.12-.53-.05-1.07-.14-1.6-.21-1.84-.23,1.65.46-.14-.04-.87-.24-1.75-.45-2.61-.73-.52-.17-1.03-.38-1.54-.56-1.29-.46.99.51-.62-.29-1.9-.95-3.61-2.14-5.31-3.41-.19-.14-.89-.78-.03,0-.41-.36-.8-.74-1.19-1.12-.91-.9-1.76-1.85-2.56-2.84-1.27-1.59-2.33-3.29-3.38-5.03-.58-.97-.21-.35-.09-.12-.26-.49-.49-1-.72-1.51-.54-1.19-1.02-2.41-1.45-3.64-.67-1.96-1.2-3.96-1.59-5.99-.18-.93-.32-1.86-.44-2.79-.07-.56-.13-1.12-.18-1.69-.03-.38-.06-.75-.08-1.13.03.58.03.52,0-.18-.03-3.52.2-7.05,1.14-10.46.04-.14.57-1.63.51-1.69.18.18-.57,1.47-.05.18.14-.33.26-.67.4-1.01.57-1.37,1.22-2.7,1.94-3.99.72-1.29,1.43-2.44,2.22-3.61.35-.53.7-1.16,1.14-1.63-1.38,1.47-.42.58-.1.16.33-.43.67-.86,1.01-1.28,2.06-2.55,4.3-4.94,6.65-7.22,1.18-1.14,2.39-2.25,3.62-3.34.4-.35,1.69-1.27-.15.12.24-.18.47-.4.7-.59.83-.69,1.66-1.38,2.51-2.05,2.84-2.26,5.77-4.4,8.77-6.45s6.16-4.07,9.33-5.96c.83-.5,1.66-.98,2.49-1.47.28-.16.56-.31.83-.48-2.25,1.38-.76.43-.26.15,1.66-.93,3.33-1.85,5.02-2.74,6.09-3.22,12.32-6.17,18.67-8.82,1.38-.57,2.76-1.13,4.15-1.68.73-.28,1.46-.56,2.19-.84.77-.29,3.61-1.25.21-.1,2.46-.84,4.92-1.7,7.42-2.42,1.94-.56,3.89-1.04,5.87-1.47,1.73-.38-2.85.44-.79.14.34-.05.68-.1,1.02-.15.7-.09,1.4-.14,2.11-.15,3.56-.04,9.13-2.69,9.68-6.64.61-4.39-4.83-5.05-7.85-5.01-4.64.06-9.41,1.41-13.83,2.74-6.64,2-13.16,4.48-19.53,7.21-14.68,6.29-28.97,14.05-41.9,23.45-11.68,8.5-24.16,19.26-29.73,33-6.93,17.11-1.48,38.57,13.18,49.92,17.85,13.83,45.12,6.69,59.56-8.71,15.66-16.71,14.8-41.91,4.26-61.01-10.73-19.44-31.41-31.73-51.76-38.93-21.66-7.66-45.4-9.91-68.16-7.04-23.3,2.94-46.44,10.94-65.81,24.38-9.42,6.54-17.99,14.69-23.8,24.66-5.39,9.25-7.7,19.89-6.47,30.52,1.21,10.43,6.68,19.76,15.23,25.85,9.39,6.68,21.97,9.62,33.37,9.62,13.01,0,26.24-3.78,35.61-13.2,7.18-7.21,11.08-17.56,11.17-27.67.22-22.62-15.98-40.86-34.01-52.53-18.03-11.67-37.97-17.17-58.47-17.88-21.41-.73-43.29,3.65-62.25,13.81-19.61,10.51-38.31,27.16-43.76,49.56-4.72,19.42,3.93,42.46,23.83,49.18,20.36,6.88,47.64-4.16,49.73-27.48,1.01-11.32-2.93-22.49-8.54-32.16-5.19-8.96-12.43-16.53-20.61-22.82-18.37-14.13-41.88-20.15-64.78-20.43-12.96-.16-25.68,1.25-38.41,3.64-3.17.6-8.28,3.89-7.25,7.73,1.12,4.18,7.06,3.65,10.14,3.07v.02Z" fill="#f8d5c9" stroke-width="0"/>
      </g>
    </mask>
  </defs>
  <g id="Layer_1-2" data-name="Layer 1">
    <g mask="url(#mask)">
      <rect width="216" height="184" fill="#f1b29e" stroke-width="0"/>
    </g>
  </g>
</svg>