<svg width="100%" height="100%" xmlns="http://www.w3.org/2000/svg" viewBox="0 0 683.5 373">
      <path d="m351.77,330.66c3.16-1.35,5.53-3.58,8.73-4.84.87-.34,1.34-1.49,2.05-2.34-1.15-.93-1.92-1.72-2.85-2.28-1.18-.71-2.51-1.19-3.72-1.89-.92-.53-1.76-1.18-2.97-2-1.99,1.6-3.69,2.95-6.38,4.96h.02c-2.03.03-3.07,1.41-4.31,2.45-1.18.98-2.85,1.66-3.16,3.49,1.67.9,3.27,1.97,5.1,2.71,2.48,1.01,4.8.88,7.49-.26Z" fill="none" stroke-width="0"/>
      <path d="m406.66,297.24c1.8-1.09,3.69-2.23,5.57-3.4,1.4-.88,2.35-2.31,4.34-2.48.22-.03.37-.61.59-1.07-1.37-1.07-2.66-2.09-3.56-2.79-2.35-.62-4.21-1.09-6.15-1.6-1.64.82-3.37,1.7-6.57,2.73h0c-.94,1.26-1.83,2.49-2.75,3.73,2.16,2.39,4.99,3.97,8.54,4.87Z" fill="none" stroke-width="0"/>
      <path d="m330.15,344.02c2.32-1.68,5.39-2.26,7.19-4.36,1.64-1.94,5.55-1.63,6.25-4.57-3.31-2.63-8.01-2.5-11.3-4.68-1.34,1.01-2.48,1.83-4.93,2.87h.02c-2.58,1.83-5.14,3.66-7.81,5.52,2.94,2.65,7.03,3.4,10.59,5.21Z" fill="none" stroke-width="0"/>
      <path d="m296.5,352.12c-1.18.48-2.23.88-4.39,1.97-3.83.99-6.07,3.78-8.86,5.92.13.21.19.45.33.59.4.34.81.82,1.33.98,3.69,1.27,7.43,2.42,10.75,4.01,3.31-2.08,6.41-3.91,9.35-5.89.78-.53,1.15-1.54,1.61-2.2-1.67-1.72-3.21-2.53-5.49-2.84-1.77-.26-3.24-1.72-4.64-2.53Z" fill="none" stroke-width="0"/>
      <path d="m340.48,354.38c-3.34-1.83-6.74-3.46-10.24-4.36-4.64,1.46-7.92,3.86-10.75,6.78-.16.14.32.71,1.45,1.86,2.45,1.27,4.86,2.56,7.22,3.8,8.89-4.12,9.62-4.59,12.32-8.08Z" fill="none" stroke-width="0"/>
      <path d="m319.45,345c-2.1-.79-4.12-1.75-6.12-2.62-4.05,2.45-9.32,3.13-11.77,6.91,1.73,1.07,3.24,2.26,5.04,3.04,1.99.85,4.18,1.33,6.07,1.91,1.21-.37,2.26-.74,4.39-1.78h0c2.35-1.48,4.74-2.91,7.06-4.35-.89-1.97-2.85-2.42-4.67-3.11Z" fill="none" stroke-width="0"/>
      <path d="m215.29,350.96c1.24-1.04,3.2-1.44,4.31-2.53,1.61-1.57,3.96-.82,5.57-1.97,4.4-2.93,9.06-5.55,13.34-8.59,3.86-2.76,8.92-3.83,12.48-6.96,3.72-3.27,9.35-4.12,12.97-7.71,1.57-1.57,4.67-1.94,6.71-3.27,2.58-1.68,4.67-4.09,7.89-4.76,3.75-.77,5.01-4.36,8.67-5.05,7.15-4.42,14.83-8.03,23.4-12.42l.06.03c2.94-1.67,4.87-4.39,8.47-5.42,4.52-1.24,8.27-3.75,11.45-6.59,1.37-.19,2.51-.32,3.69-.48,1.8-1.41,3.4-3.01,5.39-4.09,5.63-3.08,11.42-5.98,17.22-8.9,1.76-.9,3.66-1.54,5.1-2.9,3.83-3.57,8.86-5.8,13.63-8.19,1.24-.62,2.64-.99,3.72-1.89,3.56-3.04,7.49-5.52,12.48-6.65,1.27-.29,2.48-1.41,2.75-3.41-.22-.45-.53-1.44-1.15-2.23-2.04-2.73-4.12-5.47-6.34-8.11-2.23-2.65-4.37-5.35-5.79-8.4-4.77-3.27-5.92-8.72-10.13-12.33-4.64-8.64-12.1-15.86-16.71-24.53-2.88-2.28-3.75-5.69-6.04-8.25-5.42-5.98-9.71-12.46-13.5-19.24-1.4-2.5-3.1-4.87-5.57-6.8-1.27-.98-2.23-2.34-3.1-3.61-2.51-3.67-4.4-7.74-7.46-11.01-3.16-3.38-5.33-7.26-7.98-10.82-4.05-5.44-8.11-10.95-11.77-16.64-1.73-2.68-3.1-6-6.41-7.66-4.18,1.35-8.05,2.36-11.27,4.68-.88.64-2.02,1.33-3.1,1.38-5.2.34-8.98,3.41-13.5,5.02-4.83,1.72-9.38,3.98-14.02,6.03-3,1.33-4.74,3.16-5.72,6.25-.95,2.98-2.54,6.2-5.29,8.53-2.78,2.37-4.42,5.27-6.07,8.22-3.63,6.59-7.43,13.07-13.44,18-.06,1.15.26,2.26-.22,2.6-2.58,1.97-3.28,4.68-4.37,7.26-.4.93-.87,1.89-1.54,2.65-1.27,1.41-2.97,2.57-4.12,4.06-1.08,1.44-1.21,3.27-1.99,4.9-.95,2-2.97,3.1-3.89,4.99-.99,2.08-2.35,3.99-3.5,6-1.92,3.38-3.34,6.93-6.34,9.83-.68.67-.49,1.94-1.02,2.82-2.85,4.9-5.36,10.02-8.86,14.56-3.24,4.2-4.61,9.3-8.92,12.92.81,2.82-2.61,3.88-3.34,5.92-.89,2.45-3.13,3.61-4.83,5.35-.37.37-.59.88-.84,1.27-.09,1.83-.19,3.61-.32,5.52-3.07,4.7-5.69,9.8-9.48,14.2-3.69,4.28-5.76,9.27-9.38,13.58-3.53,4.17-5.26,9.44-8.24,14-1.27,1.94-1.61,3.75-1.48,5.32,1.67,3.96,5.57,6.4,6.09,10.36,4.28,4.17,6.71,9.38,10.37,13.91,3.66,4.51,5.36,10.13,10.4,13.88.19.14.06.51.16.74,1.73,3.49,4.58,6.37,6.93,9.52.78,1.04,1.51,2.12,2.16,3.24,2.39,4.2,6.18,7.3,10.3,10.56,4.77-2.31,9.41-4.34,13.77-6.78,5.85-3.29,12.45-5.66,17.55-9.94Z" fill="none" stroke-width="0"/>
      <path d="m368.83,319.82c4.37-2.34,8.6-4.45,12.39-7.12.49-.34.4-1.27.62-2.05-3.34-1.27-6.47-2.45-10.72-2.87h.02c-3.37,1.9-6.77,3.79-10.1,5.73-.36.21-.4.85-.78,1.7,1.3.68,2.66,1.43,4.02,2.17,1.41.77,2.88,1.54,4.55,2.45Z" fill="none" stroke-width="0"/>
      <path d="m118.38,203.1c4.87-4.84,6.96-10.98,10.53-16.4,1.57-2.39,3.47-4.65,5.04-7.04.32-.48-.22-1.35-.4-2.42-5.42,1.72-10.16,4.17-15.3,5.8-2.39.74-4.64,2.2-6.47,3.78-2.05,1.78-5.2.98-7.12,2.79-.52.51-1.76.42-2.32.93-1.96,1.75-4.83,1.83-6.9,2.98-2.45,1.33-4.93,2.71-7.46,3.88-5.39,2.45-10.89,4.68-16.62,7.1,1.34,2.68,2.26,5.32,3.83,7.63,1.83,2.6,3.13,5.32,4.15,8.22.92,2.65,3.93,4.39,4.58,7.15.75,3.1,4.15,4.84,5.2,7.81.92,2.58,2.29,5.02,5.1,7.12,2.62-4.68,7.55-7.92,8.24-13.35.16-1.38,1.37-2.79,2.48-3.94,4.58-4.68,7.52-10.05,10.49-16.72,1.73-1.46,3.07-3.1,2.94-5.32Z" fill="none" stroke-width="0"/>
      <path d="m153.5,262.3c1.4-2.17,2.94-4.31,4.15-6.56,3.8-7.02,9.25-13.27,12.75-20.44,3.34-1.72,2.51-5.53,6.01-8.62,3.04-5.1,6.22-10.15,9.03-15.33,2.81-5.21,6.77-9.89,9.65-15.04,2.91-5.18,7.46-9.6,9.51-15.15,2.29-1.75,2.62-4.44,4.18-6.45,1.76-2.34,3.53-4.59,4.58-7.23,1.18-2.87,4.45-4.68,5.17-7.77.65-2.82,3.47-4.57,4.77-7.12,1.99-3.88,4.39-7.58,7.09-11.19,1.73-2.31,4.12-4.81,4.15-8.48-4.24,1.78-8.05,3.4-11.05,4.68-1.67,1.97-2.85,3.4-4.12,4.79-1.3,1.41-.32,3.57-2.29,4.79-1.8,1.12-2.23,2.9-2.29,4.7-1.7,1.78-3.37,3.56-5.07,5.35.52,2.73-2.32,3.97-3.56,5.91-1.27,1.97-2.38,4.01-3.53,6.03-1.18,2.02-2.26,4.03-3.5,6.03-1.21,1.97-3.34,3.8-3.66,5.85-.4,2.58-2.72,3.83-3.9,5.83-4.45,7.58-9.41,14.96-14.12,22.43-.27.42-.16,1.12-.49,1.41-3.16,2.76-4.55,6.43-6.69,9.7-2.26,3.51-3.8,7.36-7,10.39-.13,4.06-4.42,6.33-5.76,9.94-1.4,3.77-5.14,6.62-6.19,10.59-3.83,3.27-4.71,8.03-7.92,11.64-3.2,3.58-4.8,7.95-7.39,11.83-2.16,3.24-3.69,6.8-6.54,9.78-1.8,1.86-3.1,4.34-2.26,7.23,1.48,1.67,1.67,4.48,4.61,5.55.62-.48,1.24-.74,1.48-1.18,4.58-8.34,10.1-16.29,15.17-24.4,1.92-3.06,3.07-6.45,5.01-9.46Z" fill="none" stroke-width="0"/>
      <path d="m130.98,243.71c.62-1.86,2.23-3.49,3.4-5.18,2.38-3.43,5.33-6.65,7-10.31,1.73-3.75,3.4-7.37,6.31-10.58,1.37-1.52,1.89-3.58,2.78-5.42.35-.7.32-1.63.89-2.08,3.37-2.62,4.12-6.59,6.93-9.6,2.69-2.87,4.21-6.54,6.28-9.83.56-.88.95-1.83,1.67-2.6,1.8-1.97,4.58-3.43,4.15-6.43,2.19-1.75,3.62-4.02,4.8-6.3.72-1.44,1.4-2.79,2.82-3.72,2.45-1.61,3.5-4.01,4.83-6.25,1.08-1.75,1.73-3.97,3.37-5.16,2.42-1.72,1.3-4.44,3.18-6.09.59-.51.53-.82-.33-1.09-4.8-.23-7.22,3.77-11.64,4.68-4.39.9-8.33,3.4-12.39,5.15-.22,4.03-3.01,6.73-5.69,10.63h0c-5.82,9.79-12.72,19.1-18.01,29.14-1.21,2.28-2.16,4.79-4.02,6.62-2.97,2.93-4.52,6.45-6.47,9.78-2.1,3.61-4.93,6.81-7.19,10.31-.56.88-1.37,1.75-1.48,2.71-.68,4.36-3.83,7.78-5.79,11.67-1.14,2.28-2.13,4.62-3.37,6.86-1.27,2.23-2.61,4.49-4.28,6.51-1.57,1.86-1.57,3.75-1.21,5.66,1.11,1.66,2.19,3.13,3.13,4.7.86,1.46,1.02,3.35,3.75,3.72,1.83-2.45,4.37-4.79,5.36-7.52.81-2.17,2.42-3.97,3.07-6.14,3.01-1.41,1.86-4.68,3.99-6.54,2.32-2.02,3.24-4.62,4.15-7.3Z" fill="none" stroke-width="0"/>
      <path d="m388.34,308.42c4.31-2.71,8.73-5.46,13.24-8.29-2.61-1.22-4.86-2.26-8.36-4.02-1.44.03-2.8.06-4.13.9-3.34,2.15-6.84,4.14-10.1,6.11,1.43,3.86,6.22,3.27,9.35,5.29Z" fill="none" stroke-width="0"/>
      <path d="m518.6,367.19c-6.47-1.19-11.42-4.92-17.49-6.59-4.9-3.72-11.05-5.52-16.77-7.95-3.1-1.33-6.54-2.02-9.19-4.14-.32-.26-1.15-.03-1.86-.03-5.1,1.94-8.76,5.72-13.21,8.53-2.39,1.49-4.74,2.95-6.93,4.65-2.16,1.66-4.71,2.98-6.9,4.6-3.15,2.31-6.36,4.55-9.6,6.74h93.84c-.25-.35-.49-.69-.7-.99-3.9-1.75-7.33-4.09-11.18-4.81Z" fill="none" stroke-width="0"/>
      <path d="m593.93,370.87c2.94-1.43,4.8-3.86,7.55-5.18,2.94-1.41,4.18-4.2,6.77-5.58,4.64-2.48,7.89-6.06,12.2-9.19-.86-2.2.46-4.51-1.05-6.65-.59-.03-1.4-.29-1.7-.08-4.12,2.87-8.14,5.85-12.29,8.7-6.19,4.25-12.29,8.62-18.73,12.54-1.67,1.04-3.27,2.11-4.8,3.27-1.57,1.19-2.97,2.56-4.58,3.69-.3.21-.61.41-.93.61h15.18c.69-.86,1.42-1.66,2.38-2.13Z" fill="none" stroke-width="0"/>
      <path d="m587.08,359.82c5.88-3.41,10.83-7.77,16.47-11.43,3.5-2.28,6.14-5.5,10.19-7.29,1.15-.51,1.92-1.66,3.16-2.76-2.45-1.24-4.34-2.45-6.44-3.21-1.83-.67-4.18-.37-5.45-2.09-1.34-1.86-3.96-.74-5.57-1.83-1.86-1.22-3.43-2.5-6.1-2.82-2.1-.23-4.39-1.65-5.88-3.08-1.92-1.8-4.55-.85-6.57-2-1.92-1.07-4.21-1.7-6.28-2.59-3.37-1.44-6.57-3.4-10.13-4.25-2.19-.53-3.62-1.54-5.23-2.56-.46-.29-1.05-.45-1.96-.82h-3.69c-2.58-1.27-4.15-3.04-7.25-3.3-2.69-.22-5.82-1.6-7.68-3.32-2.48-2.28-5.69-2.6-8.63-3.5-3.31-1.01-6.54-2.11-9.51-3.64-3.47-1.81-7.09-3.3-10.86-4.54-3.93-1.27-7.3-3.21-10-5.92-.86.32-1.57.56-2.35.85-1.8-1.35-3.59-2.71-5.45-4.09-.84-.05-1.83.11-2.58-.16-2.66-.98-5.5-1.83-7.81-3.27-2.62-1.66-6.44-1.18-8.54-3.69-.4-.48-1.57-.51-2.42-.71-6.09-1.67-12.26-3.21-17.12-7.07-.4-.31-1.11-.67-1.57-.56-2.66.48-4.58-1.15-6.44-2.05-2.13-1.07-4.55-.88-6.57-2-2.16-1.22-4.71-1.97-6.96-3.06-2.51-1.19-4.93-2.56-7.58-3.97-3.37,2.95-6.96,5.53-11.45,6.91-.53.16-.86.71-1.4.96-6.19,2.79-11.02,7.47-17.82,9.44-4.77,3.77-11.18,5.63-15.53,9.94-1.14,1.15-2.72,1.78-4.37,2.47-4.42,1.91-8.76,4.12-12.72,6.54-4.77,2.9-9.54,5.83-14.33,8.7-5.98,3.55-11.7,7.47-17.95,10.71-2.48,1.27-5.33,2.17-7.49,3.75-2.94,2.15-6.04,3.94-9.38,5.58-3.53,1.75-6.63,4.12-10.03,6.06-2.42,1.38-5.3,2.2-7.52,3.75-2.51,1.72-4.86,3.57-7.65,5.05-3.96,2.11-7.09,5.47-11.11,7.41-4.15,2-7.78,4.42-11.61,6.76-4.74,2.9-9.81,5.37-14.85,7.86-1.99.99-2.62,2.98-4.98,3.83-5.36,1.94-9.16,6.22-14.84,7.81-.15.14-.31.27-.47.41h20.77c3.92-2.3,7.89-4.56,11.85-6.82,4.15-2.37,8.14-4.87,12.56-6.85,3.62-1.66,6.28-4.6,10.78-6.09l.05-.04c5.1-3.8,10.19-6.84,15.72-9.12,3.53-1.46,5.23-4.91,9.25-5.58,6.19-5.1,14.26-7.95,20.67-12.81,3.96-.73,5.79-4.09,9.38-5.5,3.4-1.3,6.04-3.97,9.16-5.83,5.98-3.56,11.96-7.15,18.17-10.39,4.98-2.58,9.29-6.11,14.83-7.92.53-.16,1.02-.51,1.45-.85,8.3-6.85,18.6-11.38,27.65-17.38,2.97-1.97,6.54-3.3,9.68-4.84h8.04c.86.53,1.57,1.35,2.32,1.35,5.88.16,10.53,2.62,15.04,5.5,1.18.74,2.45,1.46,3.8,1.81,10.4,2.63,19.25,8.11,29.26,11.49,1.48,2.08,4.67.74,6.34,2.34,1.7,1.63,3.75,2.39,6.22,2.5.49.03.99.53,1.45.88,3.75,2.74,8.01,4.09,12.66,3.52,1.45,1.01,2.94,1.52,3.04,3.32-.35.42-.65,1.27-1.34,1.6-5.14,2.53-8.82,6.59-13.9,9.19-3.01,1.57-5.45,3.86-8.17,5.8-3.63,2.58-7.22,5.18-10.86,7.74-3.43,2.36-7.58,3.91-10.49,6.85-2.13,2.17-4.98,3.51-7.65,5.07-2.65,1.57-4.58,3.77-7.52,5.24-4.28,2.12-7.89,5.29-11.67,8.11-1.54,1.16-3.4,1.97-4.96,3.04-3.43,2.34-7.62,3.91-10.37,7.02-4,2.3-7.64,4.98-11.27,7.67h16.12c2.96-2,5.85-4.08,8.57-6.34,1.86-1.55,4.31-2.58,6.25-4.09,1.89-1.46,4.96-1.86,5.6-4.46,2.78-.82,5.39-1.91,7.52-3.77,1.89-1.65,3.59-3.69,5.88-4.7,4.09-1.78,6.71-4.91,10.43-7.36,1.51.16,3.5-.05,4.93.59,4.34,1.97,8.82,3.61,13.37,5.21,4.55,1.6,8.79,3.77,13.04,6.06,6.09,3.3,12.75,5.98,19.48,8.25,5.5,1.86,10.92,3.49,14.74,7.63.92,1.01,2.26,1.49,3.72,1.94.65.2,1.23.58,1.69,1.05h26.33c2.91-2.28,5.85-4.54,9.04-6.48,3.4-2.08,6.22-4.7,9.64-6.7Z" fill="none" stroke-width="0"/>
      <path d="m116.37,362.38c-.33-.67-.19-1.49-.32-2.56-4.58-3.08-7.43-7.47-10.16-11.99-1.73-2.87-3.8-5.58-5.69-8.37-3.82-5.61-8.11-10.95-11.45-16.79-.59-.9-1.86-1.78-2.91-3.32l-.08-.05c-5.33-7.49-10.13-14.62-15.01-21.72-3.07-4.47-6.25-8.93-9.16-13.52-4.71-7.44-9.71-14.76-14.77-22-.46-.67-1.4-1.09-1.7-1.78-3.21-7.07-9.06-12.79-13.24-19.38-2.91-4.59-6.01-9.15-9.29-13.55-3.28-4.42-6.22-8.98-9.68-13.35-2.45-3.06-3.99-6.65-5.95-10.02.13-1.68,1.89-2.45,3.24-4.12.06-.48.22-1.46.4-2.65.78-1.15,1.76-2.5,3.78-2.53,1.61-.03,2.72-.98,4.05-1.3,2.16-.53,3.4-2,5.14-2.9,1.73-.9,4.09-.16,5.66-1.75.89-.88,2.54-1.19,3.63-2,2.02-1.52,3.9-3.1,6.5-3.77,2.19-.56,3.83-2.26,6.38-2.26.81,0,1.76-.37,2.39-.82,4.48-3.32,10.27-4.62,15.2-7.21,2.26-1.19,4.48-1.07,6.71-1.3,2.69-1.6,5.58-2.95,7.92-4.79,2.26-1.75,5.53-1.15,7.78-3.27,1.54-1.46,4.42-2.09,6.96-2.76,3.01-.77,5.63-2.5,9.51-4.33,1.67.08,4.61-.27,7.09-1.7,2.19-1.27,4.09-2.9,6.22-4.44.75-.05,1.76.11,2.48-.21,7.84-3.3,15.6-6.65,23.4-10,1.48-2.36,4.99-1.57,6.77-3.04,2.02-1.61,4.52-2.37,6.68-3.61,2.39-1.38,5.04-2.68,7.81-3.19,2.58-.48,5.04-.79,7.59-1.6,1.73-.53,3.1-.61,3.86-2.39.4-.9,2.32-1.6,3.69-1.81,3.21-.51,5.88-1.97,8.86-2.95,2.72-.9,5.5-1.6,7.58-3.49,4.18.51,6.17-3.91,10.34-3.43,3.01-1.54,6.34-2.42,9.57-3.53,6.44-2.23,12.59-5.07,18.73-7.95,7.65-3.54,16.03-5.58,23.59-9.3,1.45-.71,3.28-.79,4.88-1.3,2.42-.77,4.83-1.6,7.22-2.5,2.13-.82,4.05-2.2,6.25-2.6,3.01-.56,5.57-1.55,7.46-3.46,4.21.23,7.62-1.15,11.15-3.13h10.1c2.39,2.08,5.91,4.09,7.52,6.91,1.61,2.82,5.39,4.12,6.01,7.36,4.39,5.61,9.84,10.6,13.53,16.64,3.31,1.72,2.19,5.55,5.23,7.69,2.88,2.02,4.34,5.24,6.38,7.97,1.89,2.53,3.9,4.92,5.45,7.63,1.51,2.63,3.66,5.05,5.36,7.68,2.1,3.24,5.07,6.11,7.95,8.93,1.4,1.35,2.35,2.82,3.31,4.36,2.16,3.52,4.09,7.26,6.97,10.31,3.53,3.75,4.96,8.7,9.54,11.75,1.99,4.45,6.04,7.89,8.04,12.36.49,1.12,1.64,2.12,2.75,2.95,1.64,1.2,2.39,2.85,3.34,4.39.27.45.81.82.89,1.27.52,2.53,3.4,3.46,4.77,5.39,1.37,1.91,2.66,3.91,3.47,6,.89,2.34,3.13,3.64,4.71,5.43,4.4,4.99,8.4,10.23,12.1,15.6,2.16,3.13,5.47,5.8,5.69,9.94.09,1.91,2.97,2.87,3.78,4.99.68,1.78,3.04,2.98,3.9,4.96.33.82,1.67,1.83,2.61,1.89,4.31.22,7.3,2.95,11.15,3.97,3.1.82,6.14,1.6,8.36,3.8,3.13-.16,5.39,1.69,8.08,2.53,5.26,1.63,9.51,4.76,14.45,6.88,4.88,2.11,10.33,3.58,14.42,6.99,3.43.67,6.66,1.78,9.51,3.58,6.8.77,12.01,4.79,18.27,6.7,2.72.82,4.83,2.95,8.05,2.71.46-.03.92.71,1.45.79,3.34.4,4.8,3.53,8.4,3.94,2.75.31,5.29,1.91,7.95,2.9,2.91,1.07,5.92,1.94,8.76,3.13,10.13,4.28,20.18,8.67,30.3,12.96,2.32.98,4.34,2.61,7.19,2.45.27-.03.65,0,.84.16,2.1,1.83,4.67,2.79,7.58,3.46,2.72.64,5.17,2.15,7.74,3.3,2.58,1.15,5.04,2.5,7.74,3.38,5.72,1.83,10.21,4.91,13.71,9.15-1.86,3.83-2.54,7.68-.56,11.67.43.88.52,1.94.56,2.93.06,2.56.03,5.13.03,7.81-1.05,1.89-3.43,2.42-5.36,3.55-1.92,1.18-3.53,2.76-5.14,4.28-2.81,2.69-6.21,4.76-9.54,6.97h72.75V0H0v373h122.97c-2.38-3.46-4.76-6.92-6.6-10.62Zm454.71-117.21c.75-.03,1.48-.79,2.94-1.24h-.02c3.37-.97,6.04-1.9,9.32-3.08h7.55c.33.93.68,1.83,1.15,3.03-2.1,2.11-3.69,4.57-7.55,4.45-4.25,2.15-9.13,3.01-13.67,4.28-4.58,1.3-9.09,3.04-13.96,3.64-1.05.14-1.99.9-3.16,1.52-1.77-1.52-3.37-2.93-4.88-4.23,1.08-3.61,4.71-4.12,7.46-4.81,4.9-1.24,9.54-3.49,14.84-3.55Zm-55.52-32.38c1.11-.26,1.96-1.78,2.72-2.82,2.78-3.88,6.01-7.41,9.78-10.65,4.55-3.94,9.75-7.41,13.01-12.47.92-1.44,2.54-2.73,4.77-3.3.81-.22,1.24-1.55,2.07-2.62h5.45c.65.61,1.64,1.52,2.78,2.61-6.35,8.88-14.45,16.19-23.21,23.77v-.03c-.95,1.3-1.54,2.15-2.07,3.04-2.2,3.69-8.67,3.61-9.75,8.26-3.53,3.13-7.03,6.28-10.62,9.35-3.37,2.9-6.84,5.74-10.21,8.64-3.56,3.06-7.98,4.99-12.26,7.12-.43.22-1.18.03-1.64.03-2-.37-3.13-1.44-3.96-3.27,1.11-1.22,3.1-2.45,3.47-3.97.59-2.39,3.16-2,4.52-3.24,6.14-5.58,12.56-10.95,18.94-16.31,1.86-1.57,3.34-3.49,6.22-4.14Zm-45.71,19.9c.59-.62,1.24-1.49,2.13-2.09,1.8-1.24,3.83-2.23,5.57-3.53,1.77-1.3,1.77-3.8,4.93-4.76l-.02-.03c1.54-2.31,3.59-3.77,5.36-5.4,2.19-2,4.77-3.66,5.98-6.43.59-1.35,2.26-2.17,4.34-2.15,1.02.03,2.07-.7,3.23-1.09.65.59,1.45,1.33,2.23,2.05-.72,1.91-1.4,3.78-2.13,5.8-7.12,7.78-14.77,15.49-23.9,22.3h-6.63c-1.7-1.35-.89-2.95-1.08-4.68ZM122.84,37.24c1.7.68,3.24,1.3,5.36,2.15,2.75,6.59,6.68,13.24,10.46,19.94,1.34,2.39,1.4,5.26,2.35,7.86.53,1.44,1.8,2.63,1.89,4.12.16,2.56.03,5.13.03,8.25-.56.56-1.54,1.49-2.29,2.2-2.69.67-4.39-.08-5.72-1.83-.16-.37-.46-.79-.56-1.27-.4-2,.49-4.12-1.37-6.54h-.02c-.49-2.56-.52-4.42-1.76-6.37-1.48-2.31-1.7-5.21-2.69-7.79-.99-2.57-2.1-5.1-3.4-7.58-1.18-2.26-2.72-4.39-3.99-6.65-.62-1.09-.95-2.28-1.51-3.58,1.11-1.01,2.1-1.91,3.21-2.9ZM51.91,5.08c1.05-.9,2.48-2.12,3.59-3.1,1.73.79,2.75,1.27,4.25,2,2.32,3.94,2.97,8.59,2.48,13.24,1.27,2.17,2.81,4.09,3.47,6.22.59,1.89-.1,4.06,1.89,5.66,1.18,6.14,4.45,11.72,6.44,17.65.24.7.52,1.38.65,2.11.75,3.58,1.18,4.44,4.45,8.37,2.81-.05,5.95.96,9.02-.88,2.45-1.49,6.15.74,7.74-2.08,5.98,1.6,9.32,4.79,11.3,9.27.92,2.08,2.69,3.94,3.31,6.06.56,1.91-.16,4.09,1.89,5.66.4,3.83,2.88,7.07,3.8,11.35h-.06c.86,2.52,1.4,4.53,2.66,6.15,1.4,1.75.24,4.2,2.45,5.55-.37,2.9,1.21,5.35,2.48,7.86,1.14,2.26,2.04,4.59,3.13,6.86.43.9,1.18,1.72,1.8,2.63v5.35c-.81.74-1.61,1.49-2.32,2.12-1.83.37-2.51.08-7.98-3.49-.1-1.24-.19-2.73-.3-4.57-2.45-1.65-3.47-4.23-4.25-6.93-1.27-4.34-4.02-8.19-5.55-12.47-.89-2.58-.56-5.55-2.75-7.77-2.02-2.02-.95-5.02-3.24-6.91-.22-5.42-3.93-9.83-5.76-14.81-.16-.42-.68-.77-1.02-1.18-4.12-.19-8.14-.45-12.07,1.27-1.18.53-2.94.08-4.48.08-5.39-1.24-8.82-4.76-12.51-8.42-.06-.51.03-1.3-.27-1.94-1.08-2.28-3.2-4.49-3.28-6.78-.1-2.68-1.76-4.76-2.26-7.23-.4-2.12-2.07-4.06-3.43-6.56v-6.43c-1.96-1.55-2.07-3.64-1.83-5.63.27-1.97-1.7-3.24-1.61-4.99.13-2.12-.33-4.01-1.83-5.55v-7.74Zm-12.61,58c1.11-1.35,2.61-1.19,4.05-.98,4.02,2.73,6.74,6.17,8.82,10.23,2.78,5.46,6.22,10.67,9.38,15.97h8.54c1.43-.98,3.01-2.08,4.71-3.21,3.4.64,6.63,1.6,9.84,2.73,2.02.71,3.72,1.7,4.9,3.1,3.9,4.7,7.95,9.3,12.07,13.91,1.02,1.15,1.86,2.56,3.1,3.61,1.27,1.09,2.66,2.08,3.4,2.62,2.51,5.83,7,10.11,8.17,15.86-.89.9-1.83,1.86-2.72,2.73h-2.91c-.46-.23-1.11-.37-1.45-.74-4.18-4.25-8.4-8.48-12.45-12.81-1.99-2.12-3.5-4.6-5.55-6.73-4.48-4.68-7.98-10.13-13.77-13.74h-4.74c-1.27.9-2.66,1.86-4.42,3.1-3.37-.22-7.19.62-11.45-1.07l-.02.04c-2.88-2.95-5.33-5.5-7.58-8.14-1.02-1.2-2.48-2.63-2.42-3.91.16-3.19-3.56-4.65-3.93-7.38-.37-2.63-2.54-4.5-3.59-7.34v-7.86Z" fill="none" stroke-width="0"/>
      <path d="m426.93,354.25c-3.66-1.54-6.96-2.93-10.56-4.44-2.32,1.19-4.52,2.34-7.62,4.23-1.76,1.52-3.83,2.82-4.88,4.44,1.99,1.3,3.47,2.56,5.23,3.32,1.96.85,4.15,1.24,6.28,1.83,3.16-1.75,6.25-3.51,9.22-5.16.78-1.44,1.48-2.73,2.32-4.23Z" fill="none" stroke-width="0"/>
      <path d="m381.14,354.57c-2.97,3.41-8.43,3.99-10.46,8.42,3.47,1.49,6.68,2.87,9.68,4.17,2.16-1.61,3.75-3.27,5.76-4.2,2.38-1.09,4.39-2.39,5.95-4.28-1.34-.79-2.69-1.6-5.1-3.13-1.92-.31-3.86-.67-5.82-.98Z" fill="none" stroke-width="0"/>
      <path d="m376,350.92c-3.75-1.67-7.55-3.4-11.42-5.13-1.83,1.09-3.78,2.15-5.63,3.35-2.02,1.3-3.96,2.68-5.82,3.94.95,3.46,4.55,2.93,8.01,4.76h0c1.33,1.05,2.75,1.87,5.04,1.42,2.75-1.8,5.76-3.75,8.76-5.72.99-.64,1.64-1.41,1.05-2.62Z" fill="none" stroke-width="0"/>
      <path d="m347.24,357.88c-4.09,2.15-9.06,3.21-11.89,7.15.94.64,1.83,1.27,4.09,2.08h-.01c2.26,1.12,4.48,2.2,6.44,3.16,1.64-.08,2.81-.14,4.21-.19,2.69-2.15,5.5-4.42,8.43-6.76-1.64-1.33-3.13-2.56-3.86-3.16-3.07-.96-5.2-1.63-7.39-2.28Z" fill="none" stroke-width="0"/>
      <path d="m410.17,347.88c-4.64-4.06-6.31-4.9-11.15-5.38-1.83,1.46-3.93,2.87-5.63,4.6-1.67,1.68-4.95,1.57-5.76,4.08,2.42,2.73,6.63,2.82,9.29,4.68,1.27-.45,2.32-.82,4.37-1.91h-.02c2.97-2.02,5.92-4.03,8.89-6.06Z" fill="none" stroke-width="0"/>
      <path d="m139.44,353.45c-1.11-1.75-2.1-3.56-3.28-5.27-3.4-4.95-7.09-9.75-10.16-14.88-.92-1.57-2.23-2.95-3.16-4.48-2.38-3.97-6.47-7.12-7.22-11.88-.22-1.38-1.34-2.9-2.58-3.88-4.25-3.35-5.69-8.25-9.35-11.91-1.67-1.67-3.28-3.88-3.5-5.98-.4-3.61-3.99-5.46-5.2-8.51-4.28-2.37-3.63-7.44-7.49-10.02.86-2.87-2.29-3.94-3.53-5.85-1.27-1.97-2.19-4.06-3.5-5.98-3.63-5.4-7.52-10.68-11.02-16.16-2.23-3.51-4.09-7.15-6.96-10.39-2.78-3.16-4.74-6.85-7.03-10.36-2.81-4.36-5.14-9.04-8.54-13.02-2.29-2.68-4.09-5.61-5.57-8.51-1.7-3.32-5.66-5.05-7-8.67-2.23,1.78-4.37,3.52-6.66,5.35,7.62,9.22,14.18,18.39,20.37,28.95h.06c2.85,3.23,5.72,6.47,8.76,9.93.06.45-.19,1.44.27,1.91,3.59,3.67,4.99,8.53,8.73,11.94.16,1.12.32,2.09.4,2.71,1.89,1.86,3.8,3.24,4.9,4.99.89,1.49,2.02,2.98,2.1,4.91.1,2.02,3.4,2.79,3.47,5.1.03.71.32,1.46.4,1.8,2.51,2.39,4.71,4.47,6.77,6.45v3.99c3.83,3.94,8.27,7.38,9.29,12.68,1.67,1.75,3.82,3.32,4.96,5.32,2.19,3.8,4.52,7.52,7.33,11.04,1.64,2.05,3.01,4.34,4.4,6.46,1.51,2.34,2.69,4.87,4.39,7.21.86,1.18,1.7,2.5,2.16,4.06,1.08,3.61,2.81,7.12,6.04,9.86,3.59,3.09,4.8,7.47,7.95,10.79.62.67.36,1.91.46,2.6,4.99,3.86,9.57,11.91,10.68,16.64.22.21.44.42.67.63h10.45c-.79-1.11-1.58-2.22-2.32-3.36-3.53-5.44-7.52-10.68-10.96-16.19Z" fill="none" stroke-width="0"/>
      <path d="m378.88,346.87c1.21.64,2,1.97,4.15,1.35,2.51-2.5,5.76-4.57,9.65-5.95,1.05-.37,1.89-1.18,2.72-1.89.16-.14-.19-.71-1.21-1.92h.02c-3.21-1.69-6.44-3.4-9.45-4.96-3.4.79-5.69,2.79-8.08,4.68-1.27,1.01-2.69,1.94-4.21,2.65-1.3.62-1.54,1.33-1.21,2.31,2.58,1.24,5.14,2.42,7.62,3.72Z" fill="none" stroke-width="0"/>
      <path d="m403.73,334.53c1.24-.7,2.29-1.6,3.4-2.42,1.34-1.01,2.58-1.94,4.34-2.53,1.21-.4,2.54-1.35,2.61-2.82-.37-.42-.68-.79-2.42-1.38h-.02c-2.69-1.94-5.42-3.83-9.48-4.57-2.29,4.39-9.35,4.76-11.77,9.91,1.51.82,2.97,1.57,4.37,2.39,1.67.98,3.28,2.05,4.9,3.08,1.45-.59,2.85-1.01,4.05-1.67Z" fill="none" stroke-width="0"/>
      <path d="m376.16,322.26c.49.79.78,1.19,2.13,2.47,2.48.56,4.28,2.68,8.17,2.11,2.23-3.58,8.47-4.34,11.34-8.61-4.11-2.33-7.97-3.47-11.58-3.41-2.35,3.27-7.71,3.99-10.07,7.44Z" fill="none" stroke-width="0"/>
      <path d="m427.38,306.1c2.05,4.09,6.87,3.64,10.59,5.46,2.61-2,5.23-4.01,9.28-6.3h.02c.35-.64.68-1.3,1.08-2.05-3.24-1.44-6.31-2.79-9.57-4.23-3.96,2.47-7.81,4.9-11.4,7.12Z" fill="none" stroke-width="0"/>
      <path d="m416.58,343.81c.65-.45,1.34-.93,2.94-2.2,3.16-2.79,7.84-3.91,10.99-7.21-3.66-1.89-7-3.64-10.49-5.47-3.5,3.8-9.57,5.38-12.94,9.83,2.61,1.6,5.17,3.21,7.77,4.76.43.23,1.11.19,1.73.29Z" fill="none" stroke-width="0"/>
      <path d="m412,299.91c1.24.4,2.02.67,3.86,1.6h0c1.51,1.18,2.88,2.64,6.04,2.13,2.75-2.26,7.58-3.21,9.84-6.93-2.32-2.37-5.39-3.06-9.19-4.09-2.04,3.69-7.74,3.52-10.56,7.29Z" fill="none" stroke-width="0"/>
      <path d="m225.11,367.18c2.94-1.41,4.58-4.28,8.24-4.92,1.3-.23,2.29-1.54,3.47-2.31,1.15-.74,2.29-1.54,3.56-2.15,5.1-2.42,9.84-5.29,14.36-8.51,3.24-2.31,6.44-5.21,11.27-5.58,4.67-4.12,10.53-6.96,15.79-9.3,1.8-1.8,3.07-3.13,4.09-4.17,1.7-.23,2.85-.4,3.8-.53,3.5-2.71,6.38-5.74,10.46-7.34,4.05-1.6,7.09-4.42,10.68-6.54,9.6-5.74,19.59-10.95,29.32-16.56,1.96-1.12,3.72-2.47,5.6-3.64,1.89-1.18,3.82-2.31,5.79-3.35,2.72-1.44,5.79-2.48,8.2-4.23,2.07-1.49,4.28-2.76,6.57-3.77,1.61-.7,3.13-1.35,4.34-2.5,2.91-2.71,6.84-3.72,10.92-4.81,4.74-4.36,10.68-7.63,16.51-11.04,5.07-2.98,10.78-5.29,14.91-9.35.19-.19.49-.26.75-.37.89-.05,1.8-.14,2.69-.19,1.89-1.2,3.99-2.2,4.83-4.68-3.4-4.17-7.39-8.26-10.27-12.87-2.78-4.44-5.95-8.64-9.41-12.68-3.63-4.23-5.53-9.46-10.24-13.05-2.54-5.16-6.77-9.35-10.49-13.85-1.48-1.78-.92-4.54-3.5-5.91-3.01-5.15-8.2-9.16-10.4-14.76-3.66-3.38-5.26-7.81-8.47-11.43-3.01-3.38-6.44-6.51-8.14-10.65-.27-.68-.99-1.35-1.7-1.75-2.13-1.22-2.64-3.35-3.96-4.99-.99-1.22-1.61-2.74-2.82-3.75-4.21-3.61-6.34-8.48-10.16-12.36-1.61-1.68-2.16-4.03-3.75-5.91-1.7-2-2.75-4.39-4.34-6.48-1.43-1.89-3.66-3.24-4.86-5.4-1.4-2.48-4.25-4.06-5.69-6.73-3.16-5.72-8.24-10.34-12.53-15.44-.81-.98-1.77-2.12-4.55-2.08-2.54,1.04-6.04,2.26-9.29,3.86-4.83,2.37-10.06,3.83-15.2,5.46-1.89.62-4.42.79-5.55,1.97-2.35,2.42-5.66,2.73-8.6,3.58-7.42,2.16-14.77,4.42-21.48,7.92-1.24.64-2.58,1.46-3.93,1.57-2.51.19-4.18,1.38-6.22,2.42-5.2,2.68-10.83,4.79-16.28,7.12-3.21-.56-4.39,2.34-7.25,3.13-4.83-1.38-7.95,3.55-12.88,3.13-1.4.96-2.78,1.94-4.31,3.01h-4.55c-6.22,4.42-13.43,7.66-20.8,10.65-5.29.03-8.63,4.09-13.59,4.9-3.8,2.82-9.54,2.53-13.01,5.92-3.13.05-4.18,3.24-7.71,3.38-2.94.11-5.55,2.45-8.86,2.87-2.85.37-5.26,1.97-6.66,4.47-1.7.14-3.43.27-4.34.31-2.48,1.24-4.29,2.02-5.98,3.01-1.67.98-3.2,2.17-4.39,3.04h-4.37c-2.26,1.49-4.34,3.1-7.58,3.46-2.45.26-5.04,1.49-7,2.93-3.66,2.68-7.93,4.22-12.16,5.87-6.34,2.5-11.99,6.11-18.14,8.88-.65.29-.95,1.18-.68.85-.19,4.54,3.86,6.33,4.74,9.6.95,3.49,4.9,5.63,5.66,9.19,3.21,2.39,4.05,6.08,6.44,8.93,2.04,2.42,4.74,4.81,5.57,7.58.95,3.16,3.96,4.91,5.17,7.78,2.19,5.13,6.38,9.43,10.3,15.12h.02c.99,2.35,2.32,4.49,3.9,6.61,2.02,2.73,3.28,5.88,5.88,8.22.13,1.61.22,3.1.32,4.33,1.27.59,2.02.96,2.51,1.16,1.43,2.15,2.23,4.59,4.09,5.92,2.42,1.72,1.73,4.2,3.31,6.09,6.28,7.52,10.62,16.08,16.57,23.79,1.18,3.83,4.18,6.65,7.55,9.54-1.24,2.74,2.07,3.8,3.13,5.83,4.21,8,10,15.21,14.87,22.89,2.07,3.3,4.71,6.3,6.87,9.57,2.72,4.12,5.23,8.32,7.84,12.49,1.54.82,2.14,2.09,2.62,3.4h16.91c-2-1.66-3.55-3.73-5.64-5.19-.13-.98-.22-1.72-.32-2.56-3.5-3.91-7.89-7.41-9.19-12.9-2.78-2.58-5.63-5.35-7.22-9.09-1.05-2.5-3.53-4.62-5.63-6.73-1.8-1.78-.62-4.57-3.37-6.03-2.02-1.07-2.91-3.1-4.02-4.9-1.24-2-3.07-3.72-4.34-5.69-5.72-8.98-12.16-17.63-18.24-26.45-3.24-4.73-5.45-10.13-10.62-13.43.46-3.88-3.24-5.61-4.58-8.37-1.3-2.73-4.09-4.99-5.17-7.79-1.14-2.9-5.23-4.39-4.71-8.16-1.61-1.6-3.34-3.29-5.14-5.07-.16-.96.03-2.17-.56-2.9-10.34-12.81-17.3-27.16-25.54-40.96-.52-.88-.86-1.81-1.24-2.56,3.13-4.08,3.2-3.99,7.27-5.21,1.08-.32,2.07-.9,3.1-1.41,2.54-1.22,5.17-2.28,7.52-3.72,2.39-1.46,5.95-.9,7.68-3.38,5.14-.51,8.46-4.14,13.17-5.58,4.61-1.41,8.79-3.88,13.18-5.83s8.63-4.44,13.31-5.61c5.76-1.44,10.19-4.73,15.42-6.84,4.99-2,10.19-3.72,14.64-6.67,2.75-1.83,6.47-1.97,9.57-3.49,5.57-2.71,10.92-5.69,16.65-8.19,5.69-2.48,11.61-4.65,17.14-7.37,3.07-1.49,6.66-1.54,9.54-3.5,2.48-1.68,5.49-2.82,8.36-4.01,2.35-.98,4.61-1.97,7.3-2.45,2.45-.42,4.15-2.58,6.66-3.58,2.1-.82,4.55-.64,6.44-2.23,1.61-1.35,3.83-2.23,5.95-3.08,2.07-.85,4.12-2,6.57-1.94,2.94-3.04,8.33-2.58,11.18-5.77,6.01-.61,10.56-4.03,15.82-6.08,3.16-1.24,6.44-2.34,9.41-3.88,1.99-1.04,3.9-1.04,6.47-.88,3.24,4.39,7,8.85,10.03,13.63,4.87,7.71,10.59,14.96,16.06,22.36,1.11,1.49,2.23,2.98,3.23,4.49,1.73,2.61,3.43,5.24,5.26,7.79,1.77,2.45,4.61,4.57,4.71,7.95.03,1.33,1.43,2.76,2.54,3.88,5.82,5.72,10,12.39,14.88,18.62,4.55,5.83,8.44,11.99,12.66,17.97,3,4.25,5.63,8.72,9.35,12.68,3.62,3.86,6.38,8.4,9.41,12.65,3.31,4.68,7.84,8.7,10.13,13.98.78,1.8,3.59,2.93,4.45,4.7.89,1.91,3.04,2.17,4.24,3.55.06.74.1,1.52.19,2.58-1.3,1.12-2.51,2.87-4.28,3.51-4.42,1.61-7.82,4.39-11.67,6.67-3.83,2.28-8.01,4.09-11.38,6.99-1.83,1.57-4.18,2.76-6.54,3.72-4.8,1.94-9.51,3.94-13.28,7.23-5.85,1.94-10.13,5.96-15.42,8.64-.95.51-2.07,1.04-3.16,1.09-2.07.23-2.94,1.65-4.8,2.98v.03c-1.73,1.7-3.4,2.05-5.42,1.94-3.78,2.26-6.44,5.91-11.11,7.34-4.45,1.38-7.68,4.47-11.7,6.45-7.06,3.53-13.31,8.05-20.65,11.27-3.8,1.68-7,4.39-10.92,6.22-3.8,1.78-7.25,4.17-10.96,6.19-3.16,1.72-5.72,4.2-9.25,5.72-3.37,1.44-6.22,3.69-9.41,5.47-4.15,2.31-8.27,4.73-12.62,6.7-3.18,1.43-5.14,4.01-8.4,5.47-6.68,2.95-13.09,6.43-19.35,10.1-4.12,2.42-8.51,4.39-12.45,7.12-1.09.77-2.41,1.29-3.82,1.73h27.47c.37-.24.75-.47,1.14-.7,3.16-1.8,6.41-3.53,9.71-5.13Zm-40.1-221.74h-.02c-2.07,2-3.78,3.38-6.77,2.63-.65-.51-1.54-1.16-2.58-1.94v-5.18c.52-.4,1.6-1.22,2.58-1.97h5.07c.83.67,1.89,1.49,3.17,2.5-.32,1.2-.65,2.34-1.45,3.97Z" fill="none" stroke-width="0"/>
      <path d="m479.75,308.72c-.46.05-.75,1.15-1.18,1.83,1.45.71,2.72,1.27,3.9,1.94,1.45.79,2.81,1.67,4.51,2.68,2.13-1.3,3.96-2.53,5.88-3.61,1.86-1.04,4.39-1.22,5.82-3.49-2.88-3.46-7.65-2.98-11.21-4.45-1.02.77-1.7,1.27-3.37,2.56h.01c-1.37.93-2.35,2.28-4.37,2.53Z" fill="none" stroke-width="0"/>
      <path d="m440.73,333.86c1.34.4,2.07.67,3.9,1.63,2.19,1.12,4.39,2.26,7.06,3.61,4.37-3.41,10.07-5.66,14.45-9.91-3.59-1.44-6.9-2.79-9.97-4.01-6.22,1.86-9.87,6.06-15.44,8.68Z" fill="none" stroke-width="0"/>
      <path d="m429.97,283.28c1.18-.71,2.39-1.6,2.02-3.35-.71-.56-1.51-1.33-2.45-1.91-.46-.29-1.15-.23-2.88-.98h.02c-.81-.22-1.8-.82-2.39-.62-4.64,1.68-5.45,2.34-9.51,6.99,2.85,1.19,5.72,2.37,8.47,3.52,2.35-1.24,4.61-2.37,6.71-3.64Z" fill="none" stroke-width="0"/>
      <path d="m444.79,296.51c3.24,2.39,6.96,3.29,10.75,2.73,2.54-1.41,4.71-2.65,7.84-4.65h-.03c.19-.22.37-.4.53-.61-2.23-1.38-4.45-2.76-6.25-3.88h-4.39c-2.62,1.49-4.83,2.68-6.96,3.97-.92.56-1.96,1.19-1.48,2.45Z" fill="none" stroke-width="0"/>
      <path d="m428.86,289.49c2.23.93,4.28,1.81,6.34,2.63,1.24.48,2.58.85,3.83,1.27,3.16-2.15,6.07-4.12,8.92-6.11.16-.11.03-.48.03-1.07-.99-.48-2.19-1.01-4.64-2.23h0c-1.64-.33-3.28-.68-5.26-1.08-2.29,2.5-7.12,3.1-9.22,6.59Z" fill="none" stroke-width="0"/>
      <path d="m478.16,315.99c-1.8-.56-3.23-1.97-4.77-2.98-4.64,2.68-9.29,4.87-12.35,8.68,3.07,1.3,6.14,2.63,9.51,4.09,1.21-.61,2.42-1.24,4.61-2.65h0c2.32-1.45,4.64-2.94,6.96-4.4-.92-1.49-2.16-2.17-3.96-2.73Z" fill="none" stroke-width="0"/>
      <path d="m454.22,318.78c3.62-1.8,6.9-3.35,10.06-5.07,1.14-.64,2.42-1.55,1.4-3.19-1.7-.67-3.62-1.27-5.33-2.15-1.73-.88-3.24-2.02-4.74-2.95-.81.37-1.34.59-2.85,1.55h-.02c-1.61,1.05-3.16,2.19-4.87,3.12-1.92,1.07-3.4,2.39-4.71,3.8,1.57,1.89,3.53,2.08,5.58,2.47,2.1.42,3.96,1.72,5.45,2.42Z" fill="none" stroke-width="0"/>
      <path d="m461.15,303.34c4.21,1.07,7.62,4.57,12.85,3.57,2.69-1.72,5.42-3.49,8.3-5.35-3.43-2.9-7.49-4.14-13.01-5.32-2.32,1.54-4.52,3.19-6.96,4.57-1.21.67-1.61,1.27-1.18,2.53Z" fill="none" stroke-width="0"/>
      <path d="m407.61,302.55c-4.96,2.82-9.75,5.55-14.55,8.29,1.73,2.2,4.55,3.01,8.36,4.51.25.16.62.48.72.42,4.34-2.42,8.67-4.84,12.91-7.39.56-.31.62-1.27.83-1.78-1.14-1.52-2.91-.79-4.12-1.38-1.45-.71-2.72-1.75-4.15-2.68Z" fill="none" stroke-width="0"/>
      <path d="m337.59,371.8c-2.07-.82-4.12-1.75-6.25-2.48-1.27-.42-2.72-.51-3.56-.67-2.33,1.55-4.45,2.96-6.55,4.35h18.79c-.64-.3-1.41-.68-2.43-1.21h0Z" fill="none" stroke-width="0"/>
      <path d="m372.78,371.1c-1.99-2.6-5.01-4.03-7.95-5.18-1.8.98-3.53,1.86-6.31,3.46h0c-1.45.81-2.94,1.56-4.31,2.49-.38.26-.62.67-.89,1.13h18.06c.81-.5,1.23-1.02,1.39-1.9Z" fill="none" stroke-width="0"/>
      <path d="m436.5,337.65c-.81.22-1.77.29-2.45.7-4.28,2.56-8.47,5.16-12.82,7.79,3.31,2.84,7.46,3.98,10.72,5.44,6.17-1.57,8.79-6.46,13.96-8.37.25-.08.13-.9.19-1.46-2.69-1.3-5.42-2.65-9.6-4.09h0Z" fill="none" stroke-width="0"/>
      <path d="m291.68,373h7.27c-1.64-.74-3.36-1.33-5.43-1.39-.54.42-1.11.85-1.84,1.39Z" fill="none" stroke-width="0"/>
      <path d="m276.5,362.87c-.06-.08-.43.29-1.54,1.15h0c-2.97,1.56-5.98,3.09-8.89,4.77-.62.34-.78,1.27-1.18,1.97,1,.79,1.95,1.55,2.82,2.24h15.22c1.88-1.23,3.75-2.45,5.7-3.73-4.28-2.28-8.17-4.36-12.13-6.4Z" fill="none" stroke-width="0"/>
      <path d="m322.37,364.85c-1.14-.56-2.45-1.12-3.62-1.8-1.18-.71-2.26-1.57-2.85-2h-4.9c-1.15.85-2.04,1.49-3.96,2.84h.02c-2.69.62-4.34,2.31-6.44,4.62,4.07,1.28,7.25,3.56,10.7,4.48h.88c3.28-2.06,6.06-3.77,8.8-5.52.99-.61,1.77-1.35,1.37-2.63Z" fill="none" stroke-width="0"/>
      <path d="m348.13,351.68c1.21-2.08,3.04-3.09,5.01-4.17,1.96-1.09,3.5-2.71,5.57-4.39-1.57-.82-3.04-1.49-4.37-2.28-1.64-.98-3.16-2.09-4.42-2.95-4.96.79-7.18,4.08-11.88,6.3-.4.64-.78,1.27-1.27,2.07,3.4,2.63,7.46,3.86,11.37,5.43Z" fill="none" stroke-width="0"/>
      <path d="m404.96,370.86c1.27-1.33,3.5-1.97,3.78-4.39-.59-.53-1.27-1.67-2.16-1.83-3.62-.64-6.8-2.98-10.99-2.15-3.31,2.19-6.77,4.44-10.53,6.89,2.91,1.06,5.52,2.22,7.79,3.62h8.91c.99-.64,2.04-1.34,3.21-2.13h-.02Z" fill="none" stroke-width="0"/>
      <path d="m441.24,327.68c2.02-1.38,4.24-2.56,6.22-3.94.53-.37.56-1.27.84-2.05-2.48-1.07-4.74-2.12-7.06-3.05-1.27-.51-2.66-.79-3.78-1.12-4.48,2.9-9.19,5.02-11.38,9.38,3.2,1.6,6.41,3.19,9.91,4.92,1.86-1.46,3.47-2.9,5.26-4.14Z" fill="none" stroke-width="0"/>
      <path d="m366,339.24c4.05-2.74,8.17-5.47,12.32-8.27-7.49-5.27-9.72-5.37-17-.88-.94.59-1.86,1.33-2.91,1.57-1.86.42-1.43,2.11-3.37,3.78,3.13,2.31,6.34,4.47,10.96,3.8Z" fill="none" stroke-width="0"/>
      <path d="m421.7,309.91c-5.72,1.65-8.98,5.38-12.72,8.51,2.61,1.3,5.1,2.47,7.52,3.8,1.21.67,2.07,1.86,3.96,1.41,1.4-1.12,2.91-2.34,5.36-4.34,1.86-1.44,3.5-3.06,5.95-3.88-2.66-3.46-6.38-4.71-10.07-5.5Z" fill="none" stroke-width="0"/>
      <path d="m548.79,253.54c1.51,1.3,3.12,2.71,4.88,4.23,1.18-.62,2.11-1.38,3.16-1.52,4.87-.6,9.38-2.34,13.96-3.64,4.55-1.27,9.43-2.13,13.67-4.28,3.86.12,5.45-2.34,7.55-4.45-.46-1.2-.81-2.11-1.15-3.03h-7.55c-3.28,1.18-5.95,2.1-9.32,3.06h.02c-1.46.46-2.19,1.23-2.94,1.26-5.29.07-9.94,2.31-14.84,3.55-2.75.7-6.38,1.2-7.46,4.81Z" fill="#f8d5c9" stroke-width="0"/>
      <path d="m125.13,50.37c1.3,2.48,2.42,5.01,3.4,7.58.99,2.58,1.21,5.48,2.69,7.79,1.24,1.96,1.27,3.82,1.76,6.37h.02c1.86,2.42.97,4.54,1.37,6.54.1.48.4.9.56,1.27,1.34,1.75,3.04,2.5,5.72,1.83.75-.71,1.73-1.64,2.29-2.2,0-3.12.13-5.69-.03-8.25-.1-1.49-1.37-2.68-1.89-4.12-.95-2.6-1.02-5.47-2.35-7.86-3.78-6.7-7.71-13.35-10.46-19.94-2.11-.85-3.66-1.46-5.36-2.15-1.11.98-2.1,1.89-3.21,2.9.56,1.3.89,2.49,1.51,3.58,1.27,2.26,2.81,4.39,3.99,6.65Z" fill="#f8d5c9" stroke-width="0"/>
      <path d="m485.89,236.48c-.36,1.52-2.35,2.75-3.47,3.97.83,1.83,1.96,2.9,3.96,3.27.46,0,1.21.19,1.64-.03,4.28-2.13,8.7-4.06,12.26-7.12,3.37-2.9,6.84-5.74,10.21-8.64,3.59-3.08,7.09-6.22,10.62-9.35,1.08-4.65,7.55-4.57,9.75-8.26.52-.89,1.11-1.74,2.07-3.04v.03c8.76-7.58,16.87-14.89,23.21-23.77-1.15-1.09-2.13-2-2.78-2.61h-5.45c-.83,1.08-1.26,2.41-2.07,2.62-2.23.56-3.85,1.86-4.77,3.3-3.26,5.06-8.46,8.53-13.01,12.47-3.77,3.24-7,6.77-9.78,10.65-.76,1.04-1.61,2.56-2.72,2.82-2.88.66-4.36,2.57-6.22,4.14-6.38,5.36-12.8,10.73-18.94,16.31-1.35,1.24-3.93.85-4.52,3.24Z" fill="#f8d5c9" stroke-width="0"/>
      <path d="m53.74,18.37c-.1,1.75,1.88,3.02,1.61,4.99-.24,2-.13,4.09,1.83,5.63v6.43c1.37,2.5,3.04,4.44,3.43,6.56.49,2.48,2.16,4.55,2.26,7.23.08,2.3,2.19,4.5,3.28,6.78.3.64.21,1.44.27,1.94,3.69,3.66,7.12,7.18,12.51,8.42,1.54,0,3.31.45,4.48-.08,3.93-1.72,7.95-1.46,12.07-1.27.33.41.86.75,1.02,1.18,1.83,4.98,5.53,9.39,5.76,14.81,2.29,1.89,1.22,4.88,3.24,6.91,2.19,2.22,1.86,5.18,2.75,7.77,1.53,4.28,4.28,8.14,5.55,12.47.78,2.71,1.8,5.28,4.25,6.93.11,1.83.21,3.32.3,4.57,5.47,3.57,6.15,3.86,7.98,3.49.72-.63,1.51-1.38,2.32-2.12v-5.35c-.62-.9-1.37-1.72-1.8-2.63-1.1-2.27-1.99-4.61-3.13-6.86-1.27-2.52-2.85-4.96-2.48-7.86-2.21-1.35-1.05-3.8-2.45-5.55-1.26-1.63-1.8-3.64-2.66-6.14h.06c-.92-4.29-3.4-7.53-3.8-11.36-2.05-1.57-1.34-3.75-1.89-5.66-.62-2.12-2.39-3.98-3.31-6.06-1.99-4.49-5.33-7.67-11.3-9.27-1.59,2.82-5.29.59-7.74,2.08-3.07,1.83-6.2.82-9.02.88-3.28-3.92-3.7-4.79-4.45-8.37-.13-.72-.41-1.41-.65-2.11-1.99-5.93-5.26-11.51-6.44-17.65-1.99-1.6-1.3-3.77-1.89-5.66-.65-2.13-2.19-4.05-3.47-6.22.49-4.65-.16-9.3-2.48-13.24-1.49-.72-2.51-1.2-4.25-2-1.11.98-2.54,2.2-3.59,3.1v7.74c1.49,1.55,1.96,3.43,1.83,5.55Z" fill="#f8d5c9" stroke-width="0"/>
      <path d="m46.83,85.66c-.06,1.29,1.4,2.71,2.42,3.91,2.26,2.64,4.71,5.18,7.58,8.14l.02-.04c4.26,1.68,8.08.85,11.45,1.07,1.76-1.24,3.15-2.2,4.42-3.1h4.74c5.79,3.61,9.29,9.07,13.77,13.74,2.05,2.13,3.56,4.61,5.55,6.73,4.05,4.34,8.27,8.56,12.45,12.81.33.37.99.51,1.45.74h2.91c.89-.88,1.83-1.83,2.72-2.73-1.18-5.76-5.66-10.04-8.17-15.86-.75-.55-2.13-1.53-3.4-2.62-1.24-1.05-2.08-2.46-3.1-3.61-4.12-4.61-8.17-9.2-12.07-13.91-1.18-1.41-2.88-2.39-4.9-3.1-3.21-1.14-6.44-2.09-9.84-2.73-1.7,1.14-3.28,2.23-4.71,3.21h-8.54c-3.16-5.31-6.6-10.52-9.38-15.97-2.08-4.06-4.8-7.49-8.82-10.23-1.45-.21-2.94-.37-4.05.98v7.86c1.05,2.84,3.23,4.72,3.59,7.34.37,2.74,4.09,4.2,3.93,7.38Z" fill="#f8d5c9" stroke-width="0"/>
      <path d="m470.93,237.36h6.63c9.13-6.81,16.77-14.52,23.9-22.3.73-2.02,1.42-3.88,2.13-5.8-.78-.72-1.57-1.46-2.23-2.05-1.16.4-2.21,1.12-3.23,1.09-2.08-.03-3.75.79-4.34,2.15-1.21,2.76-3.79,4.43-5.98,6.43-1.77,1.63-3.82,3.09-5.36,5.4l.02.03c-3.16.96-3.16,3.46-4.93,4.76-1.73,1.3-3.77,2.28-5.57,3.53-.89.6-1.54,1.48-2.13,2.09.19,1.72-.62,3.32,1.08,4.68Z" fill="#f8d5c9" stroke-width="0"/>
      <path d="m178.22,138.97c-.97.75-2.05,1.57-2.58,1.97v5.18c1.03.78,1.92,1.44,2.58,1.94,2.99.75,4.71-.63,6.77-2.63h.02c.79-1.63,1.13-2.76,1.45-3.97-1.27-1.01-2.34-1.83-3.17-2.5h-5.07Z" fill="#f8d5c9" stroke-width="0"/>
      <path d="m203.06,364.14c6.26-3.68,12.67-7.15,19.35-10.1,3.26-1.46,5.22-4.04,8.4-5.47,4.36-1.97,8.47-4.39,12.62-6.7,3.2-1.78,6.04-4.03,9.41-5.47,3.53-1.52,6.09-3.99,9.25-5.72,3.71-2.02,7.15-4.42,10.96-6.19,3.93-1.83,7.12-4.54,10.92-6.22,7.35-3.21,13.6-7.74,20.65-11.27,4.02-1.98,7.25-5.07,11.7-6.45,4.67-1.44,7.33-5.09,11.11-7.34,2.02.11,3.69-.25,5.42-1.94v-.03c1.86-1.33,2.73-2.75,4.8-2.98,1.1-.05,2.21-.59,3.16-1.09,5.29-2.68,9.57-6.7,15.42-8.64,3.77-3.29,8.47-5.29,13.28-7.23,2.35-.96,4.71-2.15,6.54-3.72,3.37-2.9,7.55-4.7,11.38-6.99,3.85-2.28,7.25-5.06,11.67-6.67,1.77-.64,2.97-2.39,4.28-3.51-.09-1.07-.13-1.85-.19-2.58-1.21-1.38-3.35-1.64-4.24-3.55-.86-1.78-3.67-2.9-4.45-4.7-2.29-5.28-6.82-9.3-10.13-13.98-3.04-4.25-5.79-8.79-9.41-12.65-3.72-3.95-6.34-8.42-9.35-12.68-4.21-5.98-8.11-12.14-12.66-17.97-4.88-6.24-9.06-12.91-14.88-18.62-1.11-1.12-2.51-2.56-2.54-3.88-.1-3.38-2.94-5.5-4.71-7.95-1.83-2.56-3.53-5.18-5.26-7.79-1-1.5-2.12-2.99-3.23-4.49-5.47-7.4-11.19-14.65-16.06-22.36-3.04-4.79-6.79-9.24-10.03-13.63-2.58-.16-4.48-.16-6.47.88-2.97,1.54-6.25,2.64-9.41,3.88-5.26,2.05-9.81,5.47-15.82,6.08-2.85,3.19-8.24,2.73-11.18,5.77-2.45-.05-4.5,1.09-6.57,1.94-2.11.85-4.34,1.72-5.95,3.08-1.89,1.59-4.34,1.41-6.44,2.23-2.51,1-4.21,3.16-6.66,3.58-2.69.48-4.95,1.46-7.3,2.45-2.88,1.19-5.88,2.33-8.36,4.01-2.88,1.96-6.47,2.01-9.54,3.5-5.53,2.72-11.45,4.9-17.14,7.37-5.72,2.5-11.08,5.48-16.65,8.19-3.1,1.52-6.82,1.65-9.57,3.49-4.45,2.95-9.65,4.68-14.64,6.67-5.23,2.11-9.67,5.4-15.42,6.84-4.67,1.16-8.92,3.66-13.31,5.61s-8.57,4.42-13.18,5.83c-4.71,1.44-8.03,5.07-13.17,5.58-1.73,2.47-5.29,1.91-7.68,3.38-2.35,1.43-4.98,2.5-7.52,3.72-1.03.51-2.02,1.09-3.1,1.41-4.07,1.22-4.13,1.14-7.27,5.21.38.75.72,1.68,1.24,2.56,8.24,13.8,15.2,28.14,25.54,40.96.59.72.4,1.94.56,2.9,1.8,1.78,3.53,3.47,5.14,5.07-.52,3.78,3.56,5.27,4.71,8.16,1.08,2.8,3.86,5.06,5.17,7.79,1.34,2.76,5.04,4.49,4.58,8.37,5.17,3.3,7.38,8.7,10.62,13.43,6.07,8.82,12.51,17.46,18.24,26.45,1.27,1.97,3.1,3.69,4.34,5.69,1.11,1.79,2,3.83,4.02,4.9,2.75,1.46,1.57,4.25,3.37,6.03,2.1,2.1,4.58,4.22,5.63,6.73,1.59,3.75,4.44,6.51,7.22,9.09,1.3,5.48,5.69,8.99,9.19,12.9.1.83.19,1.57.32,2.56,2.09,1.46,3.64,3.53,5.64,5.19h7.38c1.41-.45,2.73-.97,3.82-1.73,3.94-2.73,8.33-4.7,12.45-7.12Zm-98.12-138.99c-1.11,1.15-2.32,2.56-2.48,3.94-.68,5.43-5.61,8.67-8.24,13.35-2.81-2.11-4.18-4.54-5.1-7.12-1.05-2.97-4.45-4.7-5.2-7.81-.65-2.76-3.66-4.5-4.58-7.15-1.02-2.9-2.32-5.62-4.15-8.22-1.57-2.31-2.5-4.95-3.83-7.63,5.72-2.42,11.23-4.65,16.62-7.1,2.53-1.18,5.01-2.56,7.46-3.88,2.07-1.15,4.94-1.23,6.9-2.98.56-.51,1.8-.42,2.32-.93,1.92-1.8,5.07-1.01,7.12-2.79,1.83-1.57,4.09-3.04,6.47-3.78,5.14-1.63,9.87-4.07,15.3-5.8.17,1.07.72,1.94.4,2.42-1.57,2.39-3.47,4.65-5.04,7.04-3.56,5.42-5.66,11.56-10.53,16.4.13,2.22-1.21,3.86-2.94,5.32-2.97,6.67-5.91,12.05-10.49,16.72Zm17.9,32.4c-.65,2.17-2.26,3.97-3.07,6.14-.99,2.73-3.53,5.07-5.36,7.52-2.73-.37-2.89-2.26-3.75-3.72-.94-1.57-2.02-3.05-3.13-4.7-.37-1.91-.37-3.8,1.21-5.66,1.67-2.02,3.01-4.28,4.28-6.51,1.24-2.24,2.23-4.58,3.37-6.86,1.96-3.88,5.1-7.3,5.79-11.67.11-.96.92-1.83,1.48-2.71,2.26-3.5,5.09-6.7,7.19-10.31,1.96-3.32,3.5-6.85,6.47-9.78,1.86-1.83,2.81-4.34,4.02-6.62,5.29-10.04,12.2-19.35,18.01-29.13h0c2.69-3.91,5.47-6.6,5.69-10.64,4.05-1.75,8-4.25,12.39-5.15,4.42-.9,6.84-4.91,11.64-4.68.86.27.92.59.33,1.09-1.88,1.64-.76,4.36-3.18,6.09-1.64,1.19-2.29,3.4-3.37,5.16-1.33,2.24-2.38,4.63-4.83,6.25-1.42.93-2.1,2.28-2.82,3.72-1.18,2.28-2.61,4.55-4.8,6.3.43,3-2.35,4.46-4.15,6.43-.72.77-1.11,1.72-1.67,2.6-2.07,3.3-3.59,6.96-6.28,9.83-2.82,3.01-3.56,6.97-6.93,9.6-.57.45-.54,1.38-.89,2.08-.89,1.83-1.41,3.9-2.78,5.42-2.91,3.21-4.58,6.84-6.31,10.58-1.67,3.67-4.61,6.88-7,10.31-1.18,1.7-2.78,3.32-3.4,5.18-.91,2.68-1.83,5.28-4.15,7.3-2.13,1.86-.99,5.13-3.99,6.54Zm9,39.79c-2.94-1.07-3.13-3.88-4.61-5.55-.84-2.9.46-5.37,2.26-7.23,2.85-2.98,4.37-6.54,6.54-9.78,2.59-3.88,4.2-8.25,7.39-11.83,3.21-3.61,4.09-8.37,7.92-11.64,1.05-3.97,4.79-6.81,6.19-10.59,1.34-3.61,5.63-5.88,5.76-9.94,3.2-3.04,4.74-6.88,7-10.39,2.15-3.27,3.53-6.93,6.69-9.7.33-.29.22-.98.49-1.41,4.71-7.47,9.67-14.85,14.12-22.43,1.18-2,3.5-3.24,3.9-5.83.32-2.05,2.45-3.88,3.66-5.85,1.24-2,2.32-4.01,3.5-6.03,1.15-2.02,2.26-4.06,3.53-6.03,1.24-1.94,4.09-3.17,3.56-5.91,1.7-1.79,3.37-3.57,5.07-5.35.06-1.8.49-3.58,2.29-4.7,1.97-1.22.99-3.38,2.29-4.79,1.27-1.38,2.45-2.82,4.12-4.79,3-1.27,6.8-2.9,11.05-4.68-.03,3.66-2.42,6.17-4.15,8.48-2.7,3.61-5.1,7.3-7.09,11.19-1.3,2.56-4.12,4.31-4.77,7.12-.72,3.09-3.99,4.9-5.17,7.77-1.05,2.64-2.81,4.89-4.58,7.23-1.56,2.01-1.89,4.7-4.18,6.45-2.05,5.55-6.6,9.97-9.51,15.15-2.88,5.16-6.84,9.83-9.65,15.04-2.81,5.18-5.99,10.23-9.03,15.33-3.5,3.09-2.67,6.89-6.01,8.62-3.5,7.18-8.95,13.43-12.75,20.44-1.21,2.26-2.75,4.39-4.15,6.56-1.94,3.01-3.09,6.4-5.01,9.46-5.07,8.11-10.59,16.05-15.17,24.4-.24.44-.86.7-1.48,1.18Zm41.82,59.79c-.65-1.12-1.38-2.2-2.16-3.24-2.35-3.15-5.2-6.03-6.93-9.52-.1-.23.03-.6-.16-.74-5.04-3.75-6.74-9.37-10.4-13.88-3.66-4.53-6.09-9.74-10.37-13.91-.53-3.97-4.42-6.4-6.09-10.36-.13-1.57.21-3.38,1.48-5.32,2.97-4.57,4.71-9.83,8.24-14,3.62-4.31,5.69-9.3,9.38-13.58,3.78-4.39,6.41-9.49,9.48-14.2.13-1.91.22-3.69.32-5.52.26-.4.48-.9.84-1.27,1.7-1.74,3.94-2.9,4.83-5.35.73-2.04,4.15-3.1,3.34-5.92,4.31-3.62,5.68-8.72,8.92-12.92,3.5-4.54,6.01-9.67,8.86-14.56.53-.88.33-2.15,1.02-2.82,3.01-2.9,4.42-6.45,6.34-9.83,1.14-2.01,2.51-3.92,3.5-6,.92-1.89,2.94-2.99,3.89-4.99.78-1.63.91-3.46,1.99-4.9,1.14-1.49,2.85-2.65,4.12-4.06.67-.77,1.15-1.72,1.54-2.65,1.1-2.58,1.8-5.29,4.37-7.26.48-.34.16-1.45.22-2.6,6.01-4.92,9.81-11.4,13.44-18,1.65-2.95,3.29-5.85,6.07-8.22,2.75-2.34,4.34-5.55,5.29-8.53.99-3.09,2.72-4.92,5.72-6.25,4.64-2.05,9.19-4.31,14.02-6.03,4.52-1.61,8.3-4.68,13.5-5.02,1.08-.05,2.23-.74,3.1-1.38,3.23-2.31,7.09-3.32,11.27-4.68,3.31,1.65,4.67,4.98,6.41,7.66,3.66,5.69,7.71,11.2,11.77,16.64,2.66,3.56,4.82,7.44,7.98,10.82,3.05,3.27,4.94,7.34,7.46,11.01.88,1.27,1.83,2.63,3.1,3.61,2.46,1.93,4.17,4.29,5.57,6.8,3.78,6.78,8.08,13.27,13.5,19.24,2.29,2.56,3.16,5.96,6.04,8.25,4.61,8.67,12.07,15.89,16.71,24.53,4.21,3.61,5.36,9.07,10.13,12.33,1.41,3.05,3.56,5.74,5.79,8.4,2.23,2.64,4.31,5.37,6.34,8.11.62.79.92,1.78,1.15,2.23-.27,2-1.48,3.12-2.75,3.41-4.99,1.12-8.92,3.61-12.48,6.65-1.08.9-2.48,1.27-3.72,1.89-4.77,2.39-9.79,4.62-13.63,8.19-1.45,1.35-3.34,2-5.1,2.9-5.8,2.93-11.59,5.83-17.22,8.9-1.99,1.08-3.59,2.68-5.39,4.09-1.18.16-2.32.29-3.69.48-3.18,2.84-6.93,5.35-11.45,6.59-3.61,1.03-5.53,3.75-8.47,5.42l-.06-.03c-8.57,4.39-16.25,8-23.4,12.42-3.66.68-4.91,4.28-8.67,5.05-3.21.67-5.31,3.08-7.89,4.76-2.04,1.33-5.14,1.7-6.71,3.27-3.62,3.6-9.25,4.45-12.97,7.71-3.56,3.13-8.62,4.2-12.48,6.96-4.28,3.04-8.94,5.66-13.34,8.59-1.61,1.15-3.96.4-5.57,1.97-1.11,1.09-3.07,1.49-4.31,2.53-5.1,4.28-11.7,6.65-17.55,9.94-4.36,2.45-9,4.47-13.77,6.78-4.12-3.25-7.92-6.36-10.3-10.56Z" fill="#f8d5c9" stroke-width="0"/>
      <path d="m625.43,361.75c1.92-1.14,4.31-1.67,5.36-3.55,0-2.68.03-5.25-.03-7.81-.03-.98-.13-2.05-.56-2.93-1.99-3.98-1.3-7.84.56-11.67-3.5-4.24-7.98-7.32-13.71-9.15-2.7-.88-5.17-2.23-7.74-3.38-2.58-1.15-5.02-2.65-7.74-3.3-2.91-.67-5.49-1.63-7.58-3.46-.19-.16-.57-.19-.84-.16-2.85.16-4.87-1.46-7.19-2.45-10.13-4.29-20.18-8.68-30.3-12.96-2.85-1.19-5.85-2.07-8.76-3.13-2.66-.98-5.2-2.58-7.95-2.9-3.59-.41-5.06-3.54-8.4-3.94-.53-.08-.99-.82-1.45-.79-3.21.25-5.33-1.89-8.05-2.71-6.26-1.92-11.46-5.93-18.27-6.7-2.85-1.81-6.07-2.91-9.51-3.58-4.09-3.41-9.54-4.88-14.42-6.99-4.95-2.12-9.19-5.25-14.45-6.88-2.69-.84-4.94-2.69-8.08-2.53-2.23-2.2-5.26-2.98-8.36-3.8-3.85-1.01-6.84-3.75-11.15-3.97-.94-.05-2.27-1.07-2.61-1.89-.86-1.98-3.21-3.19-3.9-4.96-.81-2.12-3.69-3.08-3.78-4.99-.22-4.14-3.53-6.81-5.69-9.94-3.7-5.37-7.7-10.61-12.1-15.6-1.57-1.79-3.82-3.09-4.71-5.43-.81-2.09-2.1-4.09-3.47-6-1.37-1.93-4.24-2.86-4.77-5.39-.08-.45-.62-.82-.89-1.27-.95-1.54-1.7-3.19-3.34-4.39-1.11-.83-2.26-1.83-2.75-2.95-2-4.47-6.06-7.92-8.04-12.36-4.58-3.05-6.01-8-9.54-11.75-2.88-3.05-4.8-6.8-6.97-10.31-.95-1.54-1.91-3.01-3.31-4.36-2.88-2.82-5.85-5.69-7.95-8.93-1.7-2.64-3.85-5.06-5.36-7.68-1.56-2.71-3.56-5.1-5.45-7.63-2.04-2.73-3.5-5.95-6.38-7.97-3.04-2.13-1.92-5.96-5.23-7.69-3.69-6.04-9.14-11.03-13.53-16.64-.62-3.24-4.4-4.54-6.01-7.36-1.61-2.82-5.14-4.83-7.52-6.91h-10.1c-3.53,1.98-6.93,3.36-11.15,3.13-1.89,1.91-4.45,2.9-7.46,3.46-2.19.4-4.12,1.78-6.25,2.6-2.39.9-4.8,1.74-7.22,2.5-1.61.51-3.43.59-4.88,1.3-7.57,3.72-15.95,5.76-23.59,9.3-6.14,2.87-12.29,5.72-18.73,7.95-3.23,1.11-6.57,1.98-9.57,3.53-4.17-.48-6.15,3.94-10.34,3.43-2.08,1.89-4.87,2.58-7.58,3.49-2.97.98-5.64,2.45-8.86,2.95-1.37.21-3.29.9-3.69,1.81-.76,1.78-2.13,1.86-3.86,2.39-2.54.81-5.01,1.12-7.59,1.6-2.77.51-5.42,1.8-7.81,3.19-2.16,1.24-4.66,2-6.68,3.61-1.78,1.46-5.29.67-6.77,3.04-7.81,3.35-15.57,6.7-23.4,10-.72.31-1.73.15-2.48.21-2.13,1.54-4.02,3.17-6.22,4.44-2.48,1.42-5.42,1.78-7.09,1.7-3.88,1.83-6.5,3.57-9.51,4.33-2.54.67-5.42,1.3-6.96,2.76-2.24,2.12-5.52,1.52-7.78,3.27-2.34,1.83-5.23,3.19-7.92,4.79-2.23.23-4.45.11-6.71,1.3-4.93,2.58-10.72,3.88-15.2,7.21-.62.45-1.57.82-2.39.82-2.54,0-4.18,1.7-6.38,2.26-2.61.67-4.48,2.26-6.5,3.77-1.08.81-2.73,1.12-3.63,2-1.57,1.59-3.93.85-5.66,1.75-1.73.9-2.97,2.37-5.14,2.9-1.34.31-2.45,1.27-4.05,1.3-2.02.03-3.01,1.38-3.78,2.53-.17,1.19-.33,2.17-.4,2.65-1.35,1.67-3.12,2.43-3.24,4.12,1.96,3.38,3.5,6.96,5.95,10.02,3.47,4.36,6.41,8.93,9.68,13.35,3.28,4.4,6.38,8.96,9.29,13.55,4.18,6.59,10.03,12.31,13.24,19.38.3.68,1.24,1.11,1.7,1.78,5.06,7.25,10.06,14.56,14.77,22,2.91,4.59,6.09,9.05,9.16,13.52,4.88,7.1,9.68,14.22,15.01,21.72l.08.05c1.05,1.54,2.32,2.42,2.91,3.32,3.34,5.84,7.63,11.19,11.45,16.79,1.89,2.79,3.96,5.5,5.69,8.37,2.73,4.53,5.58,8.92,10.16,11.99.13,1.07-.02,1.89.32,2.56,1.84,3.7,4.22,7.16,6.6,10.62h19.3c-.22-.21-.45-.42-.67-.63-1.11-4.73-5.69-12.79-10.68-16.64-.1-.68.16-1.93-.46-2.6-3.15-3.32-4.36-7.7-7.95-10.79-3.23-2.73-4.96-6.25-6.04-9.86-.46-1.56-1.3-2.89-2.16-4.06-1.7-2.34-2.88-4.87-4.39-7.21-1.4-2.12-2.77-4.4-4.4-6.46-2.81-3.52-5.14-7.23-7.33-11.04-1.14-2-3.29-3.57-4.96-5.32-1.02-5.29-5.45-8.74-9.29-12.68v-3.99c-2.07-1.98-4.26-4.06-6.77-6.45-.08-.34-.37-1.09-.4-1.8-.06-2.31-3.37-3.08-3.47-5.1-.08-1.93-1.21-3.42-2.1-4.91-1.1-1.75-3.01-3.13-4.9-4.99-.08-.62-.24-1.59-.4-2.71-3.74-3.4-5.14-8.27-8.73-11.94-.46-.48-.21-1.46-.27-1.91-3.04-3.46-5.91-6.7-8.76-9.91h-.06c-6.19-10.57-12.75-19.75-20.37-28.96,2.29-1.83,4.44-3.57,6.66-5.35,1.34,3.62,5.29,5.35,7,8.67,1.48,2.9,3.28,5.83,5.57,8.51,3.4,3.98,5.72,8.66,8.54,13.02,2.29,3.51,4.25,7.21,7.03,10.36,2.88,3.24,4.74,6.88,6.96,10.39,3.5,5.48,7.39,10.76,11.02,16.16,1.3,1.92,2.23,4.01,3.5,5.98,1.24,1.91,4.39,2.98,3.53,5.85,3.86,2.58,3.21,7.66,7.49,10.02,1.21,3.05,4.8,4.89,5.2,8.51.22,2.09,1.83,4.31,3.5,5.98,3.66,3.66,5.1,8.56,9.35,11.91,1.24.98,2.35,2.5,2.58,3.88.75,4.76,4.83,7.92,7.22,11.88.94,1.53,2.24,2.91,3.16,4.48,3.07,5.13,6.76,9.93,10.16,14.88,1.18,1.71,2.16,3.51,3.28,5.27,3.43,5.51,7.43,10.75,10.96,16.19.74,1.14,1.53,2.25,2.32,3.36h9.78c-.48-1.31-1.08-2.58-2.62-3.4-2.61-4.17-5.12-8.37-7.84-12.49-2.16-3.27-4.8-6.28-6.87-9.57-4.86-7.68-10.65-14.89-14.87-22.89-1.07-2.02-4.37-3.09-3.13-5.83-3.37-2.9-6.38-5.72-7.55-9.54-5.95-7.71-10.29-16.27-16.57-23.79-1.57-1.89-.89-4.36-3.31-6.09-1.86-1.33-2.66-3.77-4.09-5.92-.49-.21-1.24-.57-2.51-1.16-.1-1.23-.19-2.72-.32-4.33-2.61-2.34-3.86-5.48-5.88-8.22-1.57-2.12-2.91-4.25-3.9-6.59h-.02c-3.93-5.7-8.11-10.01-10.3-15.14-1.21-2.87-4.21-4.62-5.17-7.78-.83-2.76-3.53-5.15-5.57-7.58-2.38-2.84-3.23-6.54-6.44-8.93-.76-3.56-4.71-5.7-5.66-9.19-.87-3.27-4.93-5.06-4.74-9.6-.27.33.03-.56.68-.85,6.15-2.76,11.8-6.37,18.14-8.88,4.23-1.64,8.51-3.19,12.16-5.87,1.96-1.44,4.55-2.67,7-2.93,3.24-.35,5.33-1.97,7.58-3.46h4.37c1.19-.86,2.72-2.05,4.39-3.04,1.69-.98,3.5-1.76,5.98-3.01.91-.04,2.64-.18,4.34-.31,1.4-2.5,3.82-4.1,6.66-4.47,3.31-.42,5.91-2.76,8.86-2.87,3.53-.14,4.58-3.32,7.71-3.38,3.47-3.39,9.21-3.1,13.01-5.92,4.96-.81,8.3-4.87,13.59-4.9,7.36-2.99,14.58-6.24,20.8-10.65h4.55c1.53-1.07,2.91-2.05,4.31-3.01,4.93.42,8.05-4.51,12.88-3.13,2.86-.79,4.04-3.69,7.25-3.13,5.45-2.34,11.08-4.44,16.28-7.12,2.04-1.04,3.7-2.23,6.22-2.42,1.35-.11,2.69-.93,3.93-1.57,6.71-3.5,14.06-5.76,21.48-7.92,2.94-.85,6.25-1.16,8.6-3.58,1.13-1.18,3.66-1.35,5.55-1.97,5.14-1.63,10.37-3.09,15.2-5.46,3.24-1.6,6.74-2.82,9.29-3.86,2.78-.04,3.74,1.09,4.55,2.08,4.29,5.1,9.36,9.72,12.53,15.44,1.45,2.67,4.29,4.25,5.69,6.73,1.21,2.16,3.43,3.51,4.86,5.4,1.59,2.09,2.64,4.49,4.34,6.48,1.59,1.87,2.15,4.23,3.75,5.91,3.82,3.88,5.95,8.75,10.16,12.36,1.21,1.01,1.83,2.53,2.82,3.75,1.32,1.64,1.83,3.77,3.96,4.99.71.4,1.43,1.07,1.7,1.75,1.7,4.14,5.14,7.27,8.14,10.65,3.21,3.62,4.82,8.05,8.47,11.43,2.2,5.59,7.39,9.6,10.4,14.76,2.58,1.37,2.02,4.13,3.5,5.91,3.72,4.5,7.95,8.7,10.49,13.85,4.71,3.58,6.61,8.82,10.24,13.05,3.47,4.03,6.63,8.23,9.41,12.68,2.88,4.61,6.87,8.7,10.27,12.87-.84,2.47-2.94,3.47-4.83,4.68-.89.05-1.8.14-2.69.19-.25.11-.56.18-.75.37-4.13,4.06-9.84,6.37-14.91,9.35-5.82,3.41-11.77,6.67-16.51,11.04-4.09,1.09-8.01,2.11-10.92,4.81-1.21,1.15-2.73,1.8-4.34,2.5-2.29,1.01-4.5,2.28-6.57,3.77-2.42,1.75-5.49,2.79-8.2,4.23-1.97,1.04-3.9,2.17-5.79,3.35-1.88,1.16-3.64,2.52-5.6,3.64-9.73,5.61-19.72,10.82-29.32,16.56-3.59,2.12-6.63,4.94-10.68,6.54-4.09,1.6-6.97,4.64-10.46,7.34-.95.14-2.1.3-3.8.53-1.02,1.04-2.29,2.37-4.09,4.17-5.26,2.34-11.11,5.18-15.79,9.3-4.83.37-8.03,3.27-11.27,5.58-4.52,3.21-9.25,6.09-14.36,8.51-1.27.6-2.42,1.41-3.56,2.15-1.18.77-2.16,2.08-3.47,2.31-3.66.64-5.29,3.52-8.24,4.92-3.31,1.6-6.55,3.32-9.71,5.13-.38.22-.76.46-1.14.7h14.52c.15-.14.32-.26.47-.41,5.68-1.59,9.48-5.87,14.84-7.81,2.35-.85,2.99-2.84,4.98-3.83,5.04-2.49,10.11-4.96,14.85-7.86,3.83-2.34,7.46-4.76,11.61-6.76,4.02-1.94,7.15-5.3,11.11-7.41,2.78-1.48,5.14-3.32,7.65-5.05,2.23-1.55,5.1-2.37,7.52-3.75,3.4-1.94,6.5-4.31,10.03-6.06,3.34-1.64,6.44-3.43,9.38-5.58,2.16-1.57,5.01-2.47,7.49-3.75,6.25-3.24,11.97-7.15,17.95-10.71,4.79-2.87,9.56-5.8,14.33-8.7,3.96-2.42,8.3-4.62,12.72-6.54,1.65-.7,3.23-1.33,4.37-2.47,4.36-4.31,10.77-6.17,15.53-9.94,6.81-1.97,11.64-6.65,17.82-9.44.54-.25.87-.79,1.4-.96,4.48-1.38,8.08-3.95,11.45-6.91,2.66,1.41,5.07,2.78,7.58,3.97,2.26,1.09,4.8,1.85,6.96,3.06,2.02,1.12,4.44.93,6.57,2,1.86.9,3.78,2.53,6.44,2.05.46-.11,1.18.25,1.57.56,4.86,3.86,11.03,5.4,17.12,7.07.84.21,2.02.23,2.42.71,2.1,2.52,5.91,2.04,8.54,3.69,2.3,1.44,5.15,2.28,7.81,3.27.75.27,1.73.11,2.58.16,1.86,1.38,3.66,2.73,5.45,4.09.78-.29,1.49-.53,2.35-.85,2.7,2.71,6.07,4.65,10,5.92,3.77,1.24,7.39,2.73,10.86,4.54,2.97,1.53,6.2,2.62,9.51,3.64,2.94.9,6.15,1.22,8.63,3.5,1.86,1.72,4.99,3.1,7.68,3.32,3.1.26,4.67,2.02,7.25,3.3h3.69c.91.37,1.49.53,1.96.82,1.61,1.01,3.04,2.02,5.23,2.56,3.56.85,6.76,2.82,10.13,4.25,2.07.89,4.36,1.52,6.28,2.59,2.02,1.15,4.64.19,6.57,2,1.49,1.42,3.78,2.85,5.88,3.08,2.67.32,4.24,1.6,6.1,2.82,1.61,1.09,4.23-.03,5.57,1.83,1.27,1.72,3.62,1.42,5.45,2.09,2.1.77,3.99,1.97,6.44,3.21-1.24,1.11-2.02,2.26-3.16,2.76-4.05,1.79-6.69,5.01-10.19,7.29-5.64,3.66-10.59,8.03-16.47,11.43-3.42,2-6.23,4.62-9.64,6.7-3.2,1.94-6.13,4.2-9.04,6.48h7.97c.31-.2.63-.4.93-.61,1.61-1.13,3.01-2.5,4.58-3.69,1.53-1.16,3.13-2.23,4.8-3.27,6.44-3.92,12.54-8.29,18.73-12.54,4.15-2.84,8.17-5.83,12.29-8.7.3-.2,1.11.05,1.7.08,1.51,2.13.19,4.44,1.05,6.65-4.31,3.13-7.55,6.71-12.2,9.19-2.59,1.38-3.83,4.17-6.77,5.58-2.75,1.33-4.61,3.75-7.55,5.18-.96.47-1.69,1.27-2.38,2.13h19.2c3.32-2.21,6.72-4.28,9.54-6.97,1.61-1.52,3.21-3.1,5.14-4.28Z" fill="#f8d5c9" stroke-width="0"/>
      <path d="m432.37,358.32c1.56-1.07,3.42-1.87,4.96-3.04,3.78-2.82,7.39-5.99,11.67-8.11,2.94-1.46,4.87-3.66,7.52-5.24,2.67-1.56,5.52-2.9,7.65-5.07,2.91-2.94,7.06-4.49,10.49-6.85,3.64-2.56,7.23-5.16,10.86-7.74,2.72-1.94,5.17-4.23,8.17-5.8,5.07-2.6,8.76-6.66,13.9-9.19.68-.33.99-1.18,1.34-1.6-.09-1.8-1.59-2.31-3.04-3.32-4.64.57-8.9-.78-12.66-3.52-.46-.34-.95-.85-1.45-.88-2.46-.11-4.51-.88-6.22-2.5-1.67-1.6-4.86-.26-6.34-2.34-10-3.38-18.86-8.86-29.26-11.49-1.35-.34-2.62-1.07-3.8-1.81-4.51-2.87-9.16-5.33-15.04-5.5-.75,0-1.46-.82-2.32-1.35h-8.04c-3.15,1.54-6.71,2.87-9.68,4.84-9.05,6-19.35,10.53-27.65,17.38-.43.34-.92.68-1.45.85-5.55,1.81-9.86,5.33-14.83,7.92-6.22,3.24-12.2,6.84-18.17,10.39-3.12,1.86-5.76,4.53-9.16,5.83-3.59,1.41-5.42,4.77-9.38,5.5-6.41,4.87-14.48,7.71-20.67,12.81-4.02.67-5.72,4.12-9.25,5.58-5.53,2.28-10.62,5.32-15.72,9.12l-.05.04c-4.5,1.49-7.16,4.43-10.78,6.09-4.42,1.98-8.41,4.48-12.56,6.85-3.96,2.26-7.92,4.52-11.85,6.82h18.17c-.87-.69-1.83-1.45-2.82-2.24.4-.7.56-1.63,1.18-1.97,2.91-1.68,5.92-3.21,8.89-4.79h0c1.11-.85,1.48-1.22,1.54-1.14,3.96,2.04,7.86,4.12,12.13,6.4-1.95,1.28-3.81,2.5-5.7,3.73h8.74c.72-.54,1.29-.97,1.84-1.39,2.07.06,3.79.65,5.43,1.39h12.38c-3.46-.92-6.64-3.21-10.7-4.48,2.1-2.31,3.75-4.01,6.44-4.62h-.02c1.92-1.35,2.81-2,3.96-2.84h4.9c.59.42,1.67,1.29,2.85,2,1.18.68,2.48,1.24,3.62,1.8.4,1.27-.38,2.01-1.37,2.63-2.74,1.76-5.51,3.47-8.8,5.52h9.02c2.1-1.39,4.22-2.79,6.55-4.35.84.16,2.29.25,3.56.67,2.13.73,4.18,1.66,6.25,2.48h0c1.02.52,1.79.9,2.43,1.2h13.3c.26-.47.51-.88.89-1.13,1.37-.93,2.86-1.68,4.31-2.5h0c2.78-1.59,4.52-2.46,6.31-3.45,2.94,1.15,5.96,2.58,7.95,5.18-.16.88-.58,1.39-1.39,1.9h21.47c-2.28-1.41-4.88-2.56-7.79-3.62,3.75-2.45,7.22-4.7,10.53-6.89,4.18-.84,7.36,1.5,10.99,2.15.89.16,1.57,1.3,2.16,1.83-.29,2.42-2.51,3.06-3.78,4.39h.02c-1.17.81-2.22,1.5-3.21,2.14h8.97c3.63-2.69,7.27-5.37,11.27-7.67,2.75-3.1,6.93-4.68,10.37-7.02Zm13.55-15.1c-5.17,1.91-7.79,6.8-13.96,8.37-3.26-1.46-7.41-2.6-10.72-5.44,4.34-2.64,8.54-5.24,12.82-7.79.68-.41,1.64-.48,2.45-.7h0c4.18,1.45,6.92,2.8,9.6,4.1-.06.56.06,1.38-.19,1.46Zm-107.89.96c4.7-2.21,6.93-5.51,11.88-6.3,1.26.86,2.78,1.97,4.42,2.95,1.33.79,2.8,1.46,4.37,2.28-2.07,1.68-3.61,3.3-5.57,4.39-1.97,1.08-3.8,2.09-5.01,4.17-3.91-1.57-7.97-2.8-11.37-5.43.49-.8.87-1.43,1.27-2.07Zm17.02-8.75c1.94-1.67,1.51-3.35,3.37-3.78,1.05-.25,1.97-.98,2.91-1.57,7.28-4.5,9.51-4.39,17,.88-4.15,2.8-8.27,5.54-12.32,8.27-4.61.67-7.82-1.49-10.96-3.8Zm82.41-17.91c1.13.33,2.51.62,3.78,1.12,2.32.93,4.58,1.98,7.06,3.05-.29.78-.32,1.68-.84,2.05-1.97,1.38-4.2,2.56-6.22,3.94-1.8,1.24-3.4,2.68-5.26,4.14-3.5-1.74-6.71-3.32-9.91-4.92,2.19-4.36,6.9-6.48,11.38-9.38Zm-11.64,1.76c-2.45,2-3.96,3.21-5.36,4.34-1.89.45-2.75-.74-3.96-1.41-2.42-1.33-4.91-2.5-7.52-3.8,3.74-3.13,7-6.85,12.72-8.51,3.69.79,7.41,2.04,10.07,5.5-2.45.82-4.09,2.45-5.95,3.88Zm17.36-5.4c1.3-1.41,2.78-2.73,4.71-3.8,1.7-.93,3.26-2.07,4.87-3.13h.02c1.51-.94,2.04-1.16,2.85-1.53,1.49.93,3.01,2.08,4.74,2.95,1.7.88,3.62,1.48,5.33,2.15,1.02,1.64-.25,2.54-1.4,3.19-3.16,1.72-6.44,3.27-10.06,5.07-1.49-.7-3.35-2-5.45-2.42-2.05-.4-4.01-.59-5.58-2.47Zm4.09-8.63h-.02c-4.05,2.3-6.68,4.31-9.28,6.3-3.72-1.82-8.54-1.37-10.59-5.46,3.59-2.23,7.44-4.65,11.4-7.12,3.26,1.44,6.33,2.79,9.57,4.23-.4.75-.73,1.41-1.08,2.05Zm-25.36-1.61c-3.16.51-4.53-.96-6.04-2.15h0c-1.84-.92-2.62-1.19-3.86-1.59,2.81-3.77,8.52-3.6,10.56-7.29,3.8,1.03,6.87,1.72,9.19,4.09-2.26,3.72-7.09,4.68-9.84,6.93Zm-6.03,2.97c-.21.51-.27,1.46-.83,1.78-4.24,2.54-8.57,4.96-12.91,7.39-.09.05-.46-.26-.72-.42-3.82-1.5-6.63-2.31-8.36-4.51,4.8-2.73,9.59-5.47,14.55-8.29,1.43.93,2.7,1.97,4.15,2.68,1.21.59,2.97-.14,4.12,1.38Zm-18.08,11.61c-2.86,4.28-9.11,5.03-11.34,8.61-3.9.57-5.69-1.55-8.17-2.11-1.35-1.28-1.64-1.68-2.13-2.47,2.35-3.45,7.71-4.17,10.07-7.44,3.6-.06,7.46,1.07,11.58,3.41Zm-25.33,22.62c1.53-.71,2.94-1.64,4.21-2.65,2.39-1.89,4.67-3.88,8.08-4.68,3.01,1.56,6.23,3.27,9.45,4.96h-.02c1.02,1.2,1.37,1.78,1.21,1.92-.83.71-1.67,1.52-2.72,1.89-3.9,1.38-7.14,3.45-9.65,5.95-2.15.61-2.94-.71-4.15-1.35-2.48-1.3-5.04-2.48-7.62-3.72-.33-.98-.1-1.7,1.21-2.31Zm22.31-7.71c-1.4-.82-2.86-1.57-4.37-2.39,2.42-5.15,9.48-5.52,11.77-9.91,4.05.74,6.79,2.63,9.48,4.57h.02c1.73.59,2.05.96,2.42,1.38-.06,1.46-1.4,2.42-2.61,2.82-1.77.59-3.01,1.52-4.34,2.53-1.11.82-2.16,1.72-3.4,2.42-1.21.66-2.61,1.08-4.05,1.67-1.62-1.03-3.23-2.09-4.9-3.08Zm25.23-4.2c3.5,1.83,6.84,3.58,10.49,5.47-3.15,3.3-7.82,4.42-10.99,7.21-1.61,1.27-2.29,1.75-2.94,2.2-.62-.1-1.3-.05-1.73-.29-2.61-1.54-5.17-3.16-7.77-4.76,3.37-4.46,9.45-6.03,12.94-9.83Zm31.67,10.17c-2.67-1.35-4.86-2.49-7.06-3.61-1.83-.96-2.56-1.23-3.9-1.63,5.57-2.63,9.22-6.82,15.44-8.68,3.07,1.22,6.38,2.57,9.97,4.01-4.39,4.25-10.08,6.51-14.45,9.91Zm23.47-15.96h0c-2.19,1.4-3.4,2.02-4.61,2.64-3.37-1.46-6.44-2.79-9.51-4.09,3.07-3.82,7.71-6,12.35-8.68,1.54,1.01,2.97,2.42,4.77,2.98,1.8.56,3.04,1.24,3.96,2.73-2.32,1.46-4.64,2.95-6.96,4.42Zm12.32-19.52c3.56,1.46,8.33.99,11.21,4.45-1.43,2.27-3.96,2.45-5.82,3.49-1.92,1.08-3.75,2.31-5.88,3.61-1.7-1.01-3.07-1.89-4.51-2.68-1.18-.67-2.45-1.23-3.9-1.94.43-.68.72-1.78,1.18-1.83,2.02-.25,3.01-1.6,4.37-2.53h-.01c1.67-1.29,2.35-1.79,3.37-2.56Zm-5.18-2.06c-2.88,1.86-5.61,3.62-8.3,5.35-5.23,1-8.63-2.5-12.85-3.57-.43-1.26-.03-1.86,1.18-2.53,2.45-1.38,4.64-3.02,6.96-4.57,5.52,1.18,9.57,2.42,13.01,5.32Zm-29.07-11.47h4.39c1.8,1.12,4.02,2.5,6.25,3.88-.16.22-.33.4-.53.61h.03c-3.13,2-5.3,3.24-7.84,4.65-3.78.56-7.51-.34-10.75-2.73-.48-1.26.56-1.89,1.48-2.45,2.13-1.29,4.34-2.48,6.96-3.97Zm-9.89-6.1h0c2.45,1.2,3.66,1.74,4.64,2.22,0,.59.13.96-.03,1.07-2.85,2-5.76,3.97-8.92,6.11-1.26-.42-2.59-.79-3.83-1.27-2.07-.82-4.12-1.7-6.34-2.63,2.1-3.49,6.93-4.09,9.22-6.59,1.99.4,3.62.75,5.26,1.09Zm-19.05-7.58c.59-.2,1.57.4,2.39.62h-.02c1.73.75,2.42.7,2.88.98.94.59,1.73,1.35,2.45,1.91.37,1.75-.84,2.64-2.02,3.35-2.1,1.27-4.36,2.39-6.71,3.64-2.75-1.15-5.63-2.33-8.47-3.52,4.05-4.65,4.86-5.31,9.51-6.99Zm-23.42,12.24h0c3.2-1.05,4.93-1.93,6.57-2.75,1.94.51,3.8.98,6.15,1.6.91.7,2.19,1.72,3.56,2.79-.22.45-.37,1.04-.59,1.07-1.99.16-2.94,1.6-4.34,2.48-1.88,1.18-3.77,2.31-5.57,3.4-3.55-.9-6.38-2.47-8.54-4.87.92-1.24,1.81-2.48,2.75-3.72Zm-11.78,8.36c1.33-.85,2.69-.87,4.13-.9,3.5,1.76,5.76,2.8,8.36,4.02-4.52,2.83-8.93,5.58-13.24,8.29-3.13-2.02-7.92-1.44-9.35-5.29,3.26-1.97,6.76-3.97,10.1-6.11Zm-28.05,16.49c3.32-1.94,6.73-3.83,10.1-5.72h-.02c4.24.41,7.38,1.59,10.72,2.86-.22.78-.13,1.71-.62,2.05-3.78,2.68-8.01,4.79-12.39,7.12-1.67-.9-3.13-1.68-4.55-2.45-1.37-.74-2.72-1.49-4.02-2.17.38-.85.41-1.49.78-1.7Zm-18.7,11.23c1.24-1.04,2.27-2.42,4.31-2.45h-.02c2.69-2.01,4.39-3.36,6.38-4.96,1.21.82,2.05,1.46,2.97,2,1.21.7,2.54,1.18,3.72,1.89.92.56,1.7,1.35,2.85,2.28-.71.85-1.18,2-2.05,2.34-3.2,1.26-5.56,3.49-8.73,4.84-2.69,1.14-5.01,1.27-7.49.26-1.83-.74-3.43-1.8-5.1-2.71.32-1.83,1.99-2.5,3.16-3.49Zm-14.99,8.56c2.45-1.04,3.59-1.86,4.93-2.87,3.29,2.17,8,2.05,11.3,4.68-.7,2.94-4.61,2.62-6.25,4.57-1.8,2.11-4.87,2.68-7.19,4.36-3.56-1.8-7.65-2.56-10.59-5.21,2.67-1.86,5.23-3.69,7.81-5.52h-.02Zm-22.32,26.41c-2.94,1.98-6.04,3.82-9.35,5.89-3.32-1.59-7.06-2.74-10.75-4.01-.52-.16-.94-.64-1.33-.98-.14-.14-.21-.38-.33-.59,2.78-2.15,5.02-4.94,8.86-5.92,2.16-1.09,3.21-1.49,4.39-1.97,1.4.81,2.88,2.27,4.64,2.53,2.27.31,3.82,1.12,5.49,2.84-.46.66-.83,1.67-1.61,2.2Zm12.04-7.26h0c-2.13,1.05-3.18,1.42-4.39,1.79-1.89-.59-4.09-1.07-6.07-1.91-1.8-.78-3.31-1.97-5.04-3.04,2.45-3.77,7.71-4.46,11.77-6.91,2,.88,4.02,1.83,6.12,2.62,1.83.68,3.78,1.14,4.67,3.11-2.32,1.43-4.71,2.87-7.06,4.33Zm11.1,10.02c-2.35-1.24-4.77-2.53-7.22-3.8-1.13-1.15-1.61-1.72-1.45-1.86,2.83-2.93,6.1-5.32,10.75-6.78,3.5.9,6.9,2.53,10.24,4.36-2.7,3.49-3.43,3.97-12.32,8.08Zm21.91,7.62c-1.4.05-2.58.11-4.21.19-1.96-.96-4.18-2.04-6.44-3.16h.01c-2.26-.81-3.15-1.44-4.09-2.08,2.83-3.94,7.81-5.01,11.89-7.15,2.19.66,4.33,1.33,7.39,2.28.73.6,2.23,1.83,3.86,3.16-2.93,2.34-5.74,4.61-8.43,6.76Zm11.08-12.25h0c-3.47-1.82-7.06-1.29-8.01-4.74,1.86-1.26,3.8-2.64,5.82-3.94,1.84-1.2,3.8-2.26,5.63-3.35,3.86,1.72,7.66,3.46,11.42,5.13.59,1.22-.06,1.98-1.05,2.62-3,1.97-6.01,3.91-8.76,5.72-2.29.45-3.71-.37-5.04-1.44Zm24.96,5.14c-2,.93-3.59,2.59-5.76,4.2-3.01-1.3-6.22-2.68-9.68-4.17,2.04-4.43,7.49-5.02,10.46-8.42,1.96.31,3.9.67,5.82.98,2.42,1.53,3.77,2.34,5.1,3.13-1.56,1.89-3.56,3.19-5.95,4.28Zm10.81-7.11c-2.65-1.86-6.87-1.94-9.29-4.68.81-2.5,4.09-2.39,5.76-4.08,1.7-1.72,3.8-3.13,5.63-4.6,4.83.48,6.5,1.31,11.15,5.38-2.97,2.02-5.92,4.03-8.89,6.06h.02c-2.05,1.09-3.1,1.46-4.37,1.91Zm12.18,5.95c-1.77-.77-3.24-2.02-5.23-3.32,1.05-1.63,3.12-2.93,4.88-4.44,3.1-1.89,5.29-3.04,7.62-4.23,3.59,1.52,6.9,2.9,10.56,4.44-.84,1.49-1.54,2.79-2.32,4.23-2.97,1.64-6.06,3.41-9.22,5.16-2.13-.59-4.33-.98-6.28-1.83Z" fill="#f8d5c9" stroke-width="0"/>
      <path d="m536.66,370.01c-3.82-4.14-9.24-5.77-14.74-7.63-6.73-2.27-13.39-4.95-19.48-8.25-4.24-2.28-8.49-4.46-13.04-6.06-4.55-1.6-9.03-3.24-13.37-5.21-1.43-.64-3.42-.42-4.93-.59-3.72,2.45-6.34,5.58-10.43,7.36-2.29,1.01-3.99,3.05-5.88,4.7-2.13,1.86-4.74,2.95-7.52,3.77-.64,2.6-3.7,2.99-5.6,4.46-1.94,1.5-4.39,2.54-6.25,4.09-2.72,2.26-5.61,4.34-8.57,6.34h9.78c3.24-2.19,6.45-4.43,9.6-6.74,2.19-1.61,4.74-2.94,6.9-4.6,2.19-1.69,4.55-3.16,6.93-4.65,4.45-2.82,8.11-6.59,13.21-8.53.71,0,1.54-.23,1.86.03,2.65,2.12,6.09,2.82,9.19,4.14,5.72,2.42,11.88,4.23,16.77,7.95,6.07,1.67,11.02,5.4,17.49,6.59,3.85.72,7.28,3.06,11.18,4.81.21.31.45.64.7.99h11.59c-.46-.47-1.04-.85-1.69-1.05-1.46-.45-2.8-.93-3.72-1.94Z" fill="#f8d5c9" stroke-width="0"/>
</svg>