<svg width="100%" height="100%" viewBox="0 0 41 41" fill="none" xmlns="http://www.w3.org/2000/svg">
<path d="M20.25 41C31.4338 41 40.5 31.9338 40.5 20.75C40.5 9.56623 31.4338 0.5 20.25 0.5C9.06623 0.5 0 9.56623 0 20.75C0 31.9338 9.06623 41 20.25 41Z" fill="white"/>
<path d="M20.2491 10.2979C23.6541 10.2979 24.0561 10.3099 25.4001 10.3729C26.6421 10.4299 27.3171 10.6369 27.7671 10.8109C28.3611 11.0419 28.7871 11.3179 29.2341 11.7649C29.6811 12.2119 29.9571 12.6349 30.1881 13.2319C30.3621 13.6819 30.5691 14.3569 30.6261 15.5989C30.6861 16.9429 30.7011 17.3479 30.7011 20.7499C30.7011 24.1519 30.6891 24.5569 30.6261 25.9009C30.5691 27.1429 30.3621 27.8179 30.1881 28.2679C29.9571 28.8619 29.6811 29.2879 29.2341 29.7349C28.7871 30.1819 28.3641 30.4579 27.7671 30.6889C27.3171 30.8629 26.6421 31.0699 25.4001 31.1269C24.0561 31.1869 23.6541 31.2019 20.2491 31.2019C16.8441 31.2019 16.4421 31.1899 15.0981 31.1269C13.8561 31.0699 13.1811 30.8629 12.7311 30.6889C12.1371 30.4579 11.7111 30.1819 11.2641 29.7349C10.8171 29.2879 10.5411 28.8649 10.3101 28.2679C10.1361 27.8179 9.92909 27.1429 9.87209 25.9009C9.81209 24.5569 9.79709 24.1519 9.79709 20.7499C9.79709 17.3479 9.80909 16.9429 9.87209 15.5989C9.92909 14.3569 10.1361 13.6819 10.3101 13.2319C10.5411 12.6379 10.8171 12.2119 11.2641 11.7649C11.7111 11.3179 12.1341 11.0419 12.7311 10.8109C13.1811 10.6369 13.8561 10.4299 15.0981 10.3729C16.4421 10.3129 16.8471 10.2979 20.2491 10.2979ZM20.2491 7.99988C16.7871 7.99988 16.3521 8.01488 14.9931 8.07788C13.6371 8.14088 12.7101 8.35388 11.8971 8.67188C11.0601 8.99888 10.3491 9.43388 9.63809 10.1419C8.93009 10.8499 8.49209 11.5609 8.16809 12.4009C7.85309 13.2109 7.63709 14.1379 7.57409 15.4969C7.51109 16.8559 7.49609 17.2909 7.49609 20.7529C7.49609 24.2149 7.51109 24.6499 7.57409 26.0089C7.63709 27.3649 7.85009 28.2919 8.16809 29.1049C8.49509 29.9419 8.93009 30.6529 9.63809 31.3639C10.3461 32.0719 11.0571 32.5099 11.8971 32.8339C12.7071 33.1489 13.6341 33.3649 14.9931 33.4279C16.3521 33.4909 16.7871 33.5059 20.2491 33.5059C23.7111 33.5059 24.1461 33.4909 25.5051 33.4279C26.8611 33.3649 27.7881 33.1519 28.6011 32.8339C29.4381 32.5069 30.1491 32.0719 30.8601 31.3639C31.5681 30.6559 32.0061 29.9449 32.3301 29.1049C32.6451 28.2949 32.8611 27.3679 32.9241 26.0089C32.9871 24.6499 33.0021 24.2149 33.0021 20.7529C33.0021 17.2909 32.9871 16.8559 32.9241 15.4969C32.8611 14.1409 32.6481 13.2139 32.3301 12.4009C32.0031 11.5639 31.5681 10.8529 30.8601 10.1419C30.1521 9.43388 29.4411 8.99588 28.6011 8.67188C27.7911 8.35688 26.8641 8.14088 25.5051 8.07788C24.1461 8.01488 23.7111 7.99988 20.2491 7.99988Z" fill="#213DED"/>
<path d="M20.2491 14.204C16.6341 14.204 13.7031 17.135 13.7031 20.75C13.7031 24.365 16.6341 27.296 20.2491 27.296C23.8641 27.296 26.7951 24.365 26.7951 20.75C26.7951 17.135 23.8641 14.204 20.2491 14.204ZM20.2491 25.001C17.9031 25.001 15.9981 23.099 15.9981 20.75C15.9981 18.401 17.9001 16.499 20.2491 16.499C22.5981 16.499 24.5001 18.401 24.5001 20.75C24.5001 23.099 22.5981 25.001 20.2491 25.001Z" fill="#213DED"/>
<path d="M27.0573 15.473C27.9023 15.473 28.5873 14.788 28.5873 13.943C28.5873 13.098 27.9023 12.413 27.0573 12.413C26.2123 12.413 25.5273 13.098 25.5273 13.943C25.5273 14.788 26.2123 15.473 27.0573 15.473Z" fill="#213DED"/>
</svg>
