<svg width="100%" height="100%" viewBox="0 0 41 41" fill="none" xmlns="http://www.w3.org/2000/svg">
<path d="M20.25 41C31.4338 41 40.5 31.9338 40.5 20.75C40.5 9.56623 31.4338 0.5 20.25 0.5C9.06623 0.5 0 9.56623 0 20.75C0 31.9338 9.06623 41 20.25 41Z" fill="#F8D5C9"/>
<path d="M21.8167 17.9869C22.1497 17.6119 22.4227 17.2339 22.7647 16.9129C23.8147 15.9229 25.0567 15.4249 26.5087 15.4369C27.3067 15.4429 28.0927 15.4999 28.8607 15.7219C30.6187 16.2289 31.6387 17.4409 32.1277 19.1569C32.4937 20.4439 32.5597 21.7669 32.5627 23.0929C32.5687 25.8889 32.5537 28.6879 32.5627 31.4839C32.5627 31.7449 32.4907 31.8139 32.2327 31.8139C30.7927 31.8019 29.3497 31.8019 27.9097 31.8139C27.6547 31.8139 27.6007 31.7389 27.6007 31.4989C27.6097 28.8379 27.6097 26.1769 27.6007 23.5129C27.6007 22.8469 27.5557 22.1779 27.3697 21.5299C27.0247 20.3359 26.1697 19.7269 24.9187 19.7929C23.2087 19.8829 22.3207 20.7289 22.1047 22.4659C22.0537 22.8799 22.0267 23.2969 22.0297 23.7139C22.0297 26.3029 22.0297 28.8919 22.0357 31.4809C22.0357 31.7389 21.9727 31.8139 21.7087 31.8139C20.2567 31.8019 18.8047 31.8019 17.3527 31.8139C17.1187 31.8139 17.0527 31.7539 17.0527 31.5169C17.0587 26.3929 17.0587 21.2659 17.0527 16.1419C17.0527 15.8869 17.1367 15.8299 17.3767 15.8299C18.7537 15.8389 20.1337 15.8419 21.5107 15.8299C21.7657 15.8299 21.8287 15.9109 21.8257 16.1509C21.8107 16.7629 21.8197 17.3749 21.8197 17.9899L21.8167 17.9869Z" fill="#213DED"/>
<path d="M13.9204 23.8431C13.9204 26.3781 13.9174 28.9131 13.9264 31.4481C13.9264 31.7302 13.8574 31.8141 13.5664 31.8111C12.1264 31.7962 10.6864 31.7991 9.24336 31.8111C9.01236 31.8111 8.94336 31.7541 8.94336 31.5171C8.94936 26.3841 8.94936 21.2511 8.94336 16.1151C8.94336 15.9021 8.99436 15.8271 9.21936 15.8271C10.6804 15.8361 12.1414 15.8391 13.6024 15.8271C13.8844 15.8271 13.9204 15.9321 13.9204 16.1751C13.9144 18.7311 13.9174 21.2871 13.9174 23.8431H13.9204Z" fill="#213DED"/>
<path d="M14.3195 10.742C14.3195 12.335 13.0295 13.631 11.4395 13.631C9.87052 13.631 8.56852 12.335 8.56252 10.766C8.55652 9.18195 9.85852 7.87695 11.4455 7.87695C13.0205 7.87695 14.3165 9.16995 14.3195 10.739V10.742Z" fill="#213DED"/>
</svg>
